<svg data-name="Layer 1" xmlns="http://www.w3.org/2000/svg" viewBox="0 0 458.82 256.99"><path d="M191.72 236.62c-.66 1.36-.66 1.36-1.85 1.19-1.73 2.14-2 2.1-4-.65a14.26 14.26 0 00-.53 1.67c-.24 1.3.08 1.78 1.36 2.16a5.89 5.89 0 011 .33c.45.24.78.68.46 1.14a1.45 1.45 0 01-1.06.31 5 5 0 01-1-.36 4.21 4.21 0 00-2.59.34c-1.15.35-1.58 0-1.64-1.14l1.26-.6v-.4c-.36 0-.83-.23-1-.08-1.07.8-2.16.54-3.28.27-.26-.06-.51-.12-.77-.16-1.26-.21-1.59.19-1.24 1.71a6.75 6.75 0 011.28-.45 3.08 3.08 0 011.35.09.89.89 0 01.42.74c0 .21-.39.57-.59.56-1.14 0-1.93.7-2.86 1.14a9.63 9.63 0 01-1.1.58c-.69.24-1.27-.27-.93-.86a1.36 1.36 0 00-.17-1.82.5.5 0 01-.08-.44c.46-1 0-1.62-.76-2.26s-.58-1 .11-1.68c.3-.31.58-.65 1-1.09-1.46-.07-1.85.11-2.22 1-.13.28-.15.64-.34.86a1.44 1.44 0 01-.85.48c-.13 0-.43-.43-.46-.69-.07-.7-.15-1.34-1.07-1.69a5.91 5.91 0 00-.4.9c-.08.3 0 .65-.1.92a1.05 1.05 0 01-.62.59c-.19 0-.48-.26-.66-.46a5.91 5.91 0 01-.49-.88c-.5.65-.62 1.12 0 1.57a1.82 1.82 0 00.27.15c1.32.9 1.31.91.75 2.38a19 19 0 012.9 1.71 15.65 15.65 0 011.95 2.45.91.91 0 01-1.44.37c-.4-.24-.77-.52-1.17-.77a1.9 1.9 0 00-2-.24c-.86.4-.93.3-1.8-.76l1.44-1c-1.18-.62-2.68-1-1.45-2.74l-4.76-1.84a2.18 2.18 0 01-.55.3c-.78.26-1.22 0-1.28-.82-.08-1.27-.43-2.6.54-3.74a2.2 2.2 0 00.23-.76c-.67-.36-1.06-.09-1.21.48a6.07 6.07 0 00-.46 2.42 3.06 3.06 0 01-.81 3c.63.45 1.17.84 1.72 1.22s.95.1 1.4-.23c.74-.54 1.36-.14 2 .32s1 .82.47 1.58c-.19 0-.44 0-.59-.08a1.26 1.26 0 00-1.91.2.78.78 0 01-1.24 0 5.51 5.51 0 00-3.07-1.34 3.78 3.78 0 01-2.57-1.53 2.65 2.65 0 00-1 2.4c0 1.33-.48 1.56-1.64.88-.4-.23-.79-.48-1.34-.82l-.76 1.6a18.9 18.9 0 002.64.35c1.51 0 3-.2 4.51-.23a4.68 4.68 0 011.8.34 7.65 7.65 0 011.75 1c.23.17.29.57.42.87a2.47 2.47 0 01-.93.3 2.89 2.89 0 01-1.15-.44 4.26 4.26 0 00-2.68-.47 21.83 21.83 0 01-6.84-.22 6.12 6.12 0 00-2-.16c-3.15.27-6.29.61-9.44.89-.88.08-1.78 0-2.65.1a68.52 68.52 0 00-11 2.56 12.08 12.08 0 01-4.74.81 3.09 3.09 0 00-1.38.19c-2.83 1.16-5.92 1.64-8.6 3.23-.44.26-.91.73-1.72.22a10.67 10.67 0 011.13-1 15.1 15.1 0 014.26-2.24c2-.57 3.83-1.33 5.79-1.82 1.34-.34 2.8-.24 4.14-.57 2.27-.55 4.49-1.31 6.73-1.94a16.1 16.1 0 011.7-.21c.46-.08.91-.23 1.36-.34v-.34a5.3 5.3 0 00-.9-.43c-.74-.22-1.52-.32-2.24-.58a15.27 15.27 0 00-3.78-.81 35.13 35.13 0 01-4.28-.83c-2-.45-4-1-6.08-1.38-1.16-.24-2.36-.33-3.54-.48a25.59 25.59 0 01-10.75-3.89 41.3 41.3 0 00-8.38-4.13 20.43 20.43 0 00-3-.72 62.5 62.5 0 01-9.9-3.21c-1.7-.63-3.44-1.15-5.18-1.67a6.83 6.83 0 00-4.15.23 16.44 16.44 0 01-10 .08c-2.15-.59-4.3-1.21-6.46-1.75a38.48 38.48 0 00-4.73-1 6.76 6.76 0 01-3.74-1.78 19.52 19.52 0 00-8.94-4.5c-2.17-.5-4.33-1.09-6.5-1.6a14.33 14.33 0 00-1.85-.2 8.85 8.85 0 01-2-.22c-1.6-.58-3.17-.16-4.76-.08a36.41 36.41 0 00-7.58 1.6 5.65 5.65 0 01-1.69.22 6.92 6.92 0 01-1.55-.49c1.84-1.41 3.81-1.28 5.51-1.9a37.48 37.48 0 015.31-1.12c-.13-.21-.2-.45-.35-.52-1.89-1-3.77-2-5.7-2.88a13.6 13.6 0 00-5.5-.86c-2.75 0-5.5.19-8.25.3H.59c.4-.35.6-.64.86-.73a17.41 17.41 0 012.7-.73c2.51-.39 5-.88 7.58-.25a3 3 0 003-.92 35.17 35.17 0 003.7-4.21 9.92 9.92 0 016.15-3.94 24.76 24.76 0 004.6-1.43c3.07-1.26 6.09-2.67 9.14-4 .78-.34 1.6-.58 2.57-.93-.28-.34-.39-.6-.59-.68-1.47-.65-2.93-1.31-4.44-1.87a56.2 56.2 0 01-8.48-4.29 7.52 7.52 0 00-1.55-.72A11 11 0 0122.4 184a6.74 6.74 0 00-2.74-1 6.48 6.48 0 01-3.36-1.54c-2.84-2.69-6.17-4.77-9.08-7.36a43.64 43.64 0 00-6.63-5.18c-.16-.1-.27-.29-.32-.7a11.66 11.66 0 011.47.35 5.34 5.34 0 011.68.81 2.15 2.15 0 002.72.21 44.51 44.51 0 004.65-2.81 22.63 22.63 0 016.86-3.25 32.19 32.19 0 007.91-3.23 22.19 22.19 0 013-1.41 5.71 5.71 0 015.88.78c1.56 1.1 3.28 2 4.47 3.61a2.33 2.33 0 002.08.86c2.38-.09 4.43.95 6.43 2.07 1.1.61 1 .61 2-.15 1.58-1.28 3.17-2.54 4.84-3.68a12.59 12.59 0 004.5-5.65 7.25 7.25 0 013.22-3.85 5.5 5.5 0 002.47-2.91 6.07 6.07 0 016-3.6 6.68 6.68 0 004.77-1c1.94-1.39 3.57-.76 5.51.73.94.72 1.86 1.48 2.78 2.22 1.13-.85 2.13-1.66 3.2-2.37a6.72 6.72 0 012-.88 1.81 1.81 0 001.55-1.53 3 3 0 011.82-2.18 4.18 4.18 0 001.87-1.56 2.23 2.23 0 012.05-1.26 1.72 1.72 0 001-.24c1.83-1.23 3.36-.92 5.61 1.07a9.83 9.83 0 002.68 1.75 9.13 9.13 0 012.14 1.77 6.36 6.36 0 011.09 1.11c.54.77 1.08.64 1.71.16.45-.35.94-.65 1.4-1a8.88 8.88 0 014.54-1.49 4.83 4.83 0 014.23 1.91 1.5 1.5 0 002 .44 18.71 18.71 0 014.09-.86 3.93 3.93 0 002.48-1.12 11.38 11.38 0 011.66-1.1 12 12 0 002-1.44 4 4 0 012.39-1.35 7.28 7.28 0 003.71-1.48 2.88 2.88 0 013.22-.35c.84.4 1.72.73 2.59 1.08s1.84.69 2.74 1.08a15.31 15.31 0 011.47.83c1.19-.84 2.4-1.62 3.53-2.52a3.15 3.15 0 00.92-1.39 6.76 6.76 0 016-4.45 17.37 17.37 0 016.77.77 7 7 0 005.46-.22 4.14 4.14 0 014.43.36 10.51 10.51 0 001.23.69c1.78 1 1.92.95 3.36-.46l1.57.56a22.37 22.37 0 00.38-2.83c0-2-.07-4.05-.12-6.08 0-.1-.05-.22 0-.31.79-2.44 0-4.93.25-7.4 0-.2-.11-.43-.05-.61.93-2.74 0-5.54.28-8.3.06-.48-.16-1.07.53-1.37a2.14 2.14 0 01.71 1.94c-.06 1.92-.2 3.84-.26 5.76 0 .83.06 1.66.06 2.49v11.72a21.34 21.34 0 01-.39 3.06c-.09.58.17 1 .69.88a1.94 1.94 0 001.46-1.76v-5.87-5.75a70.3 70.3 0 01.28-8.71 17.93 17.93 0 00-.17-2.17c0-1.5.12-3 .18-4.51 0-.52.06-1.09-.62-1.25-.53-.12-1.15.47-1.22 1.15 0 .26.08.53 0 .78-.09.41-.25.82-.47 1.55l-1.28-2-.4-.16a2.68 2.68 0 00-.21.6c-.1 1.13-.25 2.26-.25 3.39 0 2.08.42 4.22 0 6.22a14.36 14.36 0 000 4.19 27.35 27.35 0 01-.06 4.34 3.62 3.62 0 01-.57 1.17h-.38a13 13 0 01-.19-1.76c.07-4.88.17-9.77.26-14.66a19 19 0 000-3.85 5 5 0 00-1.46-2.68 13.19 13.19 0 01-2.95-3.79c-.52-1-.47-2.29.23-2.68a2.71 2.71 0 011.34-.21c.6 0 1.3-.08 1.58.79-.53.89-1.54.21-2.22.62.34 1.18.39 1.2 1.33.77a4.17 4.17 0 014.44.57c.33-.14.65-.29 1-.41a3.94 3.94 0 013.6 0 2 2 0 001.78.17 6.52 6.52 0 014.14 0 3.47 3.47 0 001.21.07 18.62 18.62 0 013.41-.1 11.34 11.34 0 003.24 0 4.33 4.33 0 011.24 0 13.36 13.36 0 004.76 0c1.11-.17 2.34-.22 3.05 1.15 1.74-1.73 3.47-1.31 5.25-.43a1.39 1.39 0 001.14.06c1.43-.9 2.83-.33 4.18.09a2.29 2.29 0 001.61.08 6.61 6.61 0 013.84 0 2.3 2.3 0 001.18.1 11.42 11.42 0 014.47-.22 19.15 19.15 0 002.62-.12 5.91 5.91 0 013.22.35c.14.07.36 0 .67-.06a1.43 1.43 0 00-1.8-1 14.15 14.15 0 01-5.83-.23 21.5 21.5 0 00-3.55.2 11.94 11.94 0 01-2.28-.33c-.16 0-.29-.26-.57-.52 2-.66 3.82-.33 5.67-.28s3.57 0 5.64 0c-.41-1-.73-1.83-1.1-2.64q-2.13-4.68-4.3-9.34A26.76 26.76 0 00229 80a1.82 1.82 0 00-2.17-1 28 28 0 01-8.38.19 3.64 3.64 0 00-.92.09c-1.43.18-1.71-.11-1.5-1.62h-2.53c-.13.39-.16 1-.44 1.16a3.84 3.84 0 01-1.64.31c-.57 0-1.15-.13-1.71-.07a5 5 0 00-1.76.48c-5.7 3.14-11.37 6.33-17.06 9.48-2.32 1.28-4.68 2.5-7 3.76a6 6 0 00-.81.68c.86 0 1.41 0 1.93.11.21 0 .38.29.57.45-.18.21-.33.5-.56.62a1.57 1.57 0 01-.76.08c-1.08 0-2.16-.06-3.24-.14a2.53 2.53 0 01-.78-.37c-.05-.69.41-.84.82-1.06l16.65-9.25 7.51-4.16a14.79 14.79 0 001.33-.82 2 2 0 00.56-3 7.44 7.44 0 01-.66-1.06c-.44-1 0-1.71 1.16-1.77h1.36l.57-1.64 1.2-.47c-1.53-.83-1.56-.91-1.18-3a4.15 4.15 0 00.83-.15 4 4 0 00.72-.44 2.9 2.9 0 00-.55-.41c-1-.4-1.32-.77-.92-1.72a2.32 2.32 0 00-1-3.17 1.43 1.43 0 01-.63-1.63 2.42 2.42 0 00-.28-1.3c-.38-1.07-.07-1.61 1-1.68h1.52l1.06-3a17.45 17.45 0 016.52-8.72 3.05 3.05 0 001.31-3.08c-.16-1.28-.36-2.43 1-3.27.74-.44.79-2.58 0-3.47a3.52 3.52 0 01-.69-3.2 5.06 5.06 0 011.5-3.34c.16-.14.3-.3.45-.44 1.23-1.13 1.23-1.13.65-2.69a1 1 0 01.51-1.42c1-.61 1.08-.95.46-1.89s-1.56-2.08-2.37-3.1c-1.19-1.48-1.19-1.53.14-3 .49-.53 1-1.06 1.45-1.63a5 5 0 00.49-.88l-.23-.24a10.31 10.31 0 00-1 .71c-.62.56-1.18 1.18-1.81 1.72-.94.8-1.18.79-2.15.05s-1.87-1.33-2.73-2.08a2.71 2.71 0 00-2.58-.73 1.18 1.18 0 01-1.55-.73 1.09 1.09 0 011.34-.48 2.38 2.38 0 002.31-.58q1.6-1.26 3.21-2.49c.83-.63 1.11-.65 1.93 0 .62.48 1.17 1 1.76 1.54a3.3 3.3 0 001.31.74c-.52-1.67-2.24-2.48-2.85-4.2.74-.95 1.5-2 2.31-3s1.71-2.23 1.24-3.8c-.07-.24.16-.56.25-.82.65 0 .94.4.81.77-.63 1.65.49 2.64 1.33 3.73s1.61 2 2.53 3.17l-3.21 3.94a1.73 1.73 0 001.6-.61c.55-.47 1.07-1 1.62-1.46.88-.75 1-.77 1.86-.13s1.78 1.28 2.6 2a3 3 0 003 .86c.24-.07.59-.14.75 0a4.35 4.35 0 01.74.85 4 4 0 01-.8.57 1.83 1.83 0 01-.77 0 2.87 2.87 0 00-2.4.84 30.2 30.2 0 01-2.84 2.19c-1 .74-1.28.71-2.31-.15-.67-.57-1.32-1.18-2-1.75a7.82 7.82 0 00-.92-.49c.64 1.85 2.16 2.65 3.08 4.11l-2.71 3.72a11.64 11.64 0 00-.71 1 1 1 0 00.47 1.56c1.23.76 1.26.8.66 1.94a1.46 1.46 0 00.35 1.95c.52.51 1 1.1 1.45 1.63 1 1.07.81 2.54 1.3 3.78.1.27-.33.85-.64 1.16a1.67 1.67 0 00-.59 1.93 3.2 3.2 0 01.05 1.24 1.9 1.9 0 00.79 1.9 1.15 1.15 0 01.26 1.77c-.37.57-.16 1.1 0 1.74.33 1.45 1.33 2.2 2.33 3.11a20.32 20.32 0 015.81 9.1 8.57 8.57 0 01.3 2.31 1.29 1.29 0 001 1.37c1.45.49 1.35.51 1.28 2a3.77 3.77 0 01-1 2.66 2.44 2.44 0 00-.63 2c.09 1.35 0 2.71 0 4.07 0 .68.08 1.38-.86 1.59a.7.7 0 00-.34.58 1 1 0 00.56.63 25.16 25.16 0 002.57.59c1.11.21 1.39.71.93 1.74-.8 1.77-.72 2.17.95 3.15 3.9 2.29 7.83 4.53 11.75 6.81s7.93 4.59 11.87 6.92a4.14 4.14 0 003.41.63 1.53 1.53 0 011.73.36c.49.64.12 1.23 0 1.9a6.37 6.37 0 01-2.54 3.38 3.83 3.83 0 00-1.36 3.45c.1 2.28-.13 4.57-.13 6.86s.09 4.36.15 6.55v9.34a17.05 17.05 0 01-.18 2c-.08.7.07 1.24.87 1.41.3.06.6.28.89.26a2.43 2.43 0 012.41 1.5 2.44 2.44 0 012.86 1 1.38 1.38 0 00.94.42 3.25 3.25 0 013.1 2 2.73 2.73 0 012.95.91 7.93 7.93 0 002.23 1.06 28.55 28.55 0 007.68 1.91c2 .32 3.92.93 5.87 1.45 1.05.27 2.07.7 3.13.89a10 10 0 015.22 2.94 4 4 0 00.84.69 10.81 10.81 0 013.54 3.45 21.68 21.68 0 006.76 6.38 10.09 10.09 0 007.82 1c1.81-.48 3.59-1 5.41-1.49a28.08 28.08 0 003.81-.67c3.73-1.42 7.45-2.93 10.55-5.58a3.54 3.54 0 013.35-.85 10.89 10.89 0 005.23.25 4.72 4.72 0 013.45.64c2.25 1.3 4.52 2.58 6.83 3.77a12.46 12.46 0 002.63.86 19.16 19.16 0 002.14.38 4.48 4.48 0 013.62 3.27A3.58 3.58 0 00373 157a6 6 0 012.95 2.19 39 39 0 003 3.25c1-.52 1.83-1 2.68-1.36a2.86 2.86 0 012.86 0c1.71 1.22 3.66 1 5.54 1.18a11.87 11.87 0 012.89.45 9 9 0 012.72 1.74 10.72 10.72 0 005.23 2.55 18.61 18.61 0 014.32 1.71 2.19 2.19 0 002.57-.11 11.09 11.09 0 013.77-1.82 2.49 2.49 0 001.35-1.18 7.27 7.27 0 014.44-3.45 4.23 4.23 0 002.61-1.84 2.09 2.09 0 011.42-.73 3.72 3.72 0 012.92.88 19.06 19.06 0 006 2.94 3.23 3.23 0 011.72 1.25c.83 1.26 1.69 2.5 2.43 3.8a2.55 2.55 0 001.78 1.36c1.06.25 2.12.53 3.17.83a6.55 6.55 0 014 3 6.94 6.94 0 001.59 1.66 3.07 3.07 0 003.23.43 5.88 5.88 0 013.75-.55c-.75 1.17-2.11 1.2-3.28 1.88.89 1 1.75 1.92 2.56 2.89s1.52 1.93 2.51 3.2c-.66-.19-1-.19-1.25-.38a16.67 16.67 0 01-2-1.94 11 11 0 00-4.25-3.34A8.3 8.3 0 01442 174c-1.07-1.83-3-2.08-4.9-2.38l-.21.28c.3.38.61.78.93 1.16s.6.5.7.81a3.07 3.07 0 01-.06 1.12c-.36-.07-.89 0-1.07-.24-.68-.84-1.25-1.78-1.85-2.69-.14-.21-.16-.53-.34-.69-1.77-1.72-2.86-3.93-4.31-5.88a1.77 1.77 0 00-.73-.54c-1.11-.44-2.26-.77-3.35-1.26a17.06 17.06 0 01-2.12-1.28c-.48-.3-.94-.66-1.45-.92-1.26-.66-1.88-.57-2.81.55a5.31 5.31 0 01-2.83 1.53 6 6 0 00-3.6 2.81 4.27 4.27 0 01-2.88 2.12 19.31 19.31 0 00-3.73 1.9 5.09 5.09 0 003.43 3.54 16.4 16.4 0 013.29 1.39 52.6 52.6 0 014.62 2.9 4 4 0 011.34 1.65 4.81 4.81 0 002.94 2.81 15.39 15.39 0 012.37 1.18 1.89 1.89 0 001.78.18 7.32 7.32 0 004-2.76 5.52 5.52 0 016-1.73 8.74 8.74 0 004.22.88 2.55 2.55 0 012.17 1 17.38 17.38 0 005.7 3.73 12.48 12.48 0 003.05.56 2.84 2.84 0 011.39.65 4.7 4.7 0 01-1.17.49 7.7 7.7 0 01-5.37-1.17c-1.46-1-2.9-2-4.33-3.05a3.82 3.82 0 00-2.14-.72 13.31 13.31 0 01-3.44-.84 4.47 4.47 0 00-3.77.18 5.12 5.12 0 00-1.69 1.32 6.45 6.45 0 01-3.29 2.47c-2.2.72-3.89 2.31-6 3.52 2.12 1.58 3.54 3.71 6.06 4.48 1.47.45 2.79 1.33 4.32 1.72a5.4 5.4 0 013.87 3.09 20.14 20.14 0 002.31 3.52 3.74 3.74 0 002.66 1.64 14.19 14.19 0 017.2 3.13 15.11 15.11 0 002.35 1.5c1.85 1.06 3.72 2.09 5.58 3.14.1.06.14.24.28.47a4.31 4.31 0 01-3-.59 62 62 0 01-7.12-4.15 11.5 11.5 0 00-6.73-2.1 24.14 24.14 0 00-7 .58c-1.22.33-2.5.47-3.8.7-.47-.67-.21-1.05.45-1.45 1.31-.8 2.8-.7 4.21-1 1.26-.25 2.53-.37 3.94-.57a4.89 4.89 0 00-.37-1.05c-.71-1.09-1.54-2.11-2.18-3.24a5.39 5.39 0 00-3.65-2.42h-.31c-2.59-1.43-5.74-1.9-7.69-4.46a5.83 5.83 0 00-3.18-1.89 6.24 6.24 0 01-3.12-1.94 3.65 3.65 0 00-2.14-1.14 47 47 0 01-4.89-1.54 2.35 2.35 0 00-1.92.13 9.62 9.62 0 01-3 .8 33.31 33.31 0 01-7.91-.43 7.66 7.66 0 00-3.38.29 29.44 29.44 0 00-8.06 4 3.39 3.39 0 01-2.29.83 1.14 1.14 0 00-.61.1c-3.64 1.77-7.64 2.7-11.14 4.83a4.66 4.66 0 01-3.74.57 6.59 6.59 0 00-5.38.93 24.94 24.94 0 00-2.19 1.5 18.36 18.36 0 01-7.3 3.75 22.17 22.17 0 00-4.76 1.81 3.8 3.8 0 01-1.81.25 5.31 5.31 0 00-5 2.37c-.42.59-.92 1.12-1.52 1.83.72.54 1.4 1.06 2.1 1.55s1.41.89 2.08 1.39a7.9 7.9 0 004.25 1.77 3.17 3.17 0 012.43 1.78 6.09 6.09 0 002 2.34.9.9 0 01.33 1.39 2.65 2.65 0 01-2.26-1.35 5.39 5.39 0 00-4.53-3 3.49 3.49 0 01-1.49-.79c-1.44-.94-2.84-1.93-4.29-2.85a9 9 0 00-1.72-.72c-1.65-.59-3.34-1.12-5-1.75a7.61 7.61 0 00-6.33.36c-1 .51-2.05 1-3.12 1.44a5.36 5.36 0 01-2.09.49 3.54 3.54 0 00-3.49 2.38c-.85 2-2.51 2.86-4.37 3.42a5.38 5.38 0 00-3.66 2.62 10.34 10.34 0 01-1.22 1.61 2.59 2.59 0 01-2.6 1.05 2.13 2.13 0 00-2.48 1.17 6.28 6.28 0 01-4.06 2.93 11 11 0 00-3.9 1.65c.18.71.75.93 1.32 1.16a18.89 18.89 0 003.05 1.16 44.72 44.72 0 004.48.46l5.27.47a5.68 5.68 0 001.09 0c3.28-.41 6.39.51 9.47 1.39a8.26 8.26 0 012.66 1.59 19.71 19.71 0 006.45 3.73 23.65 23.65 0 004.72.87 49.32 49.32 0 005.3 0 12 12 0 015.18.78 4 4 0 002.29 0 16.7 16.7 0 005.53-2 9.22 9.22 0 014.47-1.22 9 9 0 004.32-1.11 2.93 2.93 0 012.4-.3 4.45 4.45 0 003.19-.35 29 29 0 012.93-1 9.86 9.86 0 002.45-.93c2-1.36 4-1.19 6.1-.58a9.59 9.59 0 002.73.5 6.14 6.14 0 015.16 3 3.19 3.19 0 002.74 1.67 7.6 7.6 0 012.5.8 4.09 4.09 0 003 .08 21.42 21.42 0 013.95-.86 2.67 2.67 0 011.73.46 5.83 5.83 0 003.68 1.47 1.69 1.69 0 01.87.3 17.08 17.08 0 004.4 1.5 46.74 46.74 0 015.26 1.92 32.42 32.42 0 013.1 1.46c.26.13.58.57.52.75a1 1 0 01-.77.56 2.69 2.69 0 01-1.32-.38 30.85 30.85 0 00-8.86-3.3 12.57 12.57 0 01-1.59-.58 6.29 6.29 0 00-1.88-.71 6.06 6.06 0 01-3.42-1.36 3.24 3.24 0 00-2.82-.47c-.76.19-1.53.34-2.27.58a6.6 6.6 0 01-4.86-.33 3.92 3.92 0 00-2.24-.44c-1 .15-1.72-.66-2.19-1.49a6.77 6.77 0 00-2.65-2.58 5.28 5.28 0 00-1.74-.48 27.25 27.25 0 01-2.89-.51c-2.14-.67-4.18-.81-6.1.59a3.47 3.47 0 01-1 .47c-1.82.6-3.62 1.24-5.47 1.73a11.16 11.16 0 01-2.31 0 3.89 3.89 0 00-1.62.19 14 14 0 01-5.26 1.32 14 14 0 00-3.58.92c-1.72.7-3.29 1.8-5.22 1.94-.17 0-.33.22-.72.49a8.06 8.06 0 001.39.54c2.2.37 4.45.46 6.54 1.35a.67.67 0 00.31 0c2.1-.31 3.83.57 5.57 1.6a16 16 0 002.47.85 8.23 8.23 0 011.18.64c-.72.87-1.42 1.09-2.23.73a24.78 24.78 0 01-2.92-1.45 5.12 5.12 0 00-3.09-.89 5.4 5.4 0 01-2.87-.56 3.57 3.57 0 00-1.35-.27 12.23 12.23 0 01-6.88-2.16 7.16 7.16 0 00-4.85-1.33 56.54 56.54 0 01-7.81-.1 18.2 18.2 0 01-8.3-3.37 3.92 3.92 0 01-.51-.37c-3.5-3.22-7.86-3.73-12.32-3.93-3.37-.15-6.74-.28-10.11-.44a2.92 2.92 0 01-1.06-.23c-1.94-.86-4.1-1.23-5.83-2.55-1-.75-2.18-.67-3.28-.83a14.26 14.26 0 01-4.28-1.36 5.6 5.6 0 00-2.24-.51 2.8 2.8 0 01-2.76-1.37c-.29-.53-.78-.59-1.33-.65a25.72 25.72 0 01-2.74-.47 4.77 4.77 0 00-3.05.24c-1 .47-2.12.86-3.17 1.32a3.28 3.28 0 00-1.22.67 7.56 7.56 0 01-4.94 2.34 13.54 13.54 0 01-5.84-.3 5.31 5.31 0 00-1.37-.23c-2.8-.08-5.59-.4-8.36.49-1.07.34-2.24.21-3 1.25-.29.38-.78.23-1-.26a10.33 10.33 0 01-.33-1.15 4.59 4.59 0 00-.5.56c-.64 1.14-.94 1.33-1.88 1.16a2.28 2.28 0 01-1.86-2v-1.17c-.89-.08-.93.57-1.19 1-.65 1-1.22 1-2.07.22a16.5 16.5 0 00-2.08-1.47c-1.1 1.12.26 1.71.19 2.71a5.33 5.33 0 01-.63.83c-.7.69-1.06.73-1.9.17-.5-.33-.93-.72-1.36 0 0 .15 0 .29.08.34 1.3 1.09 1.29 1.08.2 2.46-.29.37-.47.81-.73 1.19a1.72 1.72 0 01-2.89.21 2.53 2.53 0 01-.65-3.1l-1.9.1c.07.39.14.68.19 1 .18 1 .09 1.26-.84 1.52s-2 .71-3.08 1a3.45 3.45 0 00-2.76 2.63 2 2 0 01-1.88 1.94 27.73 27.73 0 00-4.51 1.1c-1 .33-1.51-.36-2.06-1a1.16 1.16 0 010-1.78c.13-.15.11-.45.16-.71-2.17.22-2.17.22-2.94-1.78-1.3.86-1.59 2.43-2.82 3.39a10.66 10.66 0 001 .88c.55.35 1.09.67.82 1.47a1.92 1.92 0 01-1.77 1.28 9.81 9.81 0 01-1.7-.48c-1.48.6-1.48.6-2.44-.6l-1.06 1a6 6 0 003 1.21 1.8 1.8 0 01.89.19 1 1 0 01.34.79.87.87 0 01-.63.53 3.93 3.93 0 01-1.21-.17c-.91-.22-1.81-.47-2.71-.69-1.13-.28-1.23-.39-1.31-1.57 0-.35-.08-.7-.14-1.18-2.11.71-4.27.44-6.3 1.19a10.91 10.91 0 01-3.4.25c-.53 0-1-.33-.82-.87.07-.28.56-.56.89-.61.61-.11 1.25 0 1.87-.07s1.19-.2 1.81-.31c0-.9-.63-.84-1.12-.94-1.42-.26-1.44-.37-1.19-1.84a4.72 4.72 0 00-.17-1.37zM77.29 225.57c-1.33.08-1.58-1.45-2.65-1.82-.11 1.74.79 2.32 2.68 1.79-.26.9.53.86 1 1 1.35.5 2.78.83 4.09 1.43a1.64 1.64 0 002.29-.36 3.09 3.09 0 011.7-.93c.88-.12 1.14-.56 1.2-1.35a3.85 3.85 0 00-.51-.56c-.8-.57-1.26-1.21-.67-2.22.1-.16-.1-.49-.25-1.05-.38.86-.66 1.4-.86 2a6.17 6.17 0 00-.17 1.06 2.06 2.06 0 01-2.19 1.76 1.83 1.83 0 01-1.77-2.21 4 4 0 01.13-.92 2.07 2.07 0 00-.81-2.44c-.56 1.08-1.93 1.69-.72 3.15.47.58-.12 1.49-.91 1.6-.52.06-1.04.04-1.58.07zm48.86-25.66c.28.78-.32 1.1-1 1.36a25.19 25.19 0 00-6 3.29 46.42 46.42 0 00-8.93 8.89 29.91 29.91 0 01-3.12 3.25 4.13 4.13 0 01-1.61.9 1.17 1.17 0 01-1-.38c-.33-.45.08-.79.47-.95 1.94-.77 3.12-2.36 4.41-3.86 1.66-1.92 3.32-3.86 5.13-5.65a24.83 24.83 0 018-5.82c.18-.08.29-.38.53-.71-1-.27-1.8-.52-2.63-.72-1.41-.36-2.82-.68-4.22-1-2.06-.52-4.13-1-6.18-1.6a8.65 8.65 0 00-6.66.32 6 6 0 01-1 .36c-.42.13-.93.19-1-.33 0-.28.33-.66.58-.93a2.15 2.15 0 01.69-.36c2.58-1.2 5.17-1.77 7.9-.36a2.69 2.69 0 003.29-.49 22.68 22.68 0 012.06-1.41 48 48 0 0110.64-6.15c.15-.06.22-.3.36-.5a1.89 1.89 0 00-2-.63c-2.15.74-4.09.17-6-.69a3.69 3.69 0 00-1.92-.43 8 8 0 01-5.52-1.15 4.18 4.18 0 00-3.84-.35 33.3 33.3 0 01-4.24.92 20.3 20.3 0 00-2.34.27 10.79 10.79 0 01-6.29 0c-2.34-.64-4.52-1.82-7-2-1.69-.16-3.33-.76-5-1a8.37 8.37 0 01-4-1.26 2.83 2.83 0 00-2.35-.48 16.08 16.08 0 01-3.25.26c-1.18 0-2.36-.11-3.53-.12a3.48 3.48 0 00-1.37.19c-1.52.65-3 1.46-4.55 2a12.19 12.19 0 00-4.66 3 15.78 15.78 0 01-7.81 4.59 27.46 27.46 0 00-5.19 2.25c-1 .47-2 1.09-3.06 1.55-3.95 1.74-7.9 3.48-11.88 5.13a26.63 26.63 0 01-5.06 1.72 11.72 11.72 0 00-7.74 5.17 27.19 27.19 0 01-2.53 2.74 4.17 4.17 0 00-.32.49 3.18 3.18 0 00.42.35c2.33 1.26 4.65 2.53 7 3.76a11.5 11.5 0 002.56 1.1c1.31.31 2.68.32 4 .59 2.64.55 5.28 1.1 7.88 1.82a20.08 20.08 0 018.55 4.33 7.38 7.38 0 004.29 2 13.54 13.54 0 011.69.28c3.73.9 7.46 1.79 11.17 2.74s6.83-.39 10.25-1.24a8.24 8.24 0 01-.22-1 2.57 2.57 0 011.44-2.51c.81-.18 1.49.35 1.93 1.63a1.16 1.16 0 001.31 1c-.36-1.4.55-2.27 1.14-3.35s1.88-2.1 1.7-3.72c0-.36.61-1 1.07-1.15a1.7 1.7 0 011.34.51 2.67 2.67 0 01.45 3.19 2.48 2.48 0 000 2.48c.11.95-.93 1.39-.26 2.41.79-1.57 1.58-2.94 2.19-4.38a4.22 4.22 0 011.78-1.88c.71-.45 1.37 0 1.35.82a1.61 1.61 0 01-.24.89 1.8 1.8 0 00-.29 1.89c.11.27-.14.69-.14 1a3.43 3.43 0 00.18.84 5.92 5.92 0 002.4-2.79 20.88 20.88 0 01.54-2.37c.09-.29.46-.72.67-.7a1.56 1.56 0 011 .59 8.87 8.87 0 011.12 1.84 2.48 2.48 0 01.18 1.32 4 4 0 01-.5 1.07c.41.69 1 1.29 1.06 1.93s-.51 1.22-.84 1.92c1.05.39 1.91.91 1.92 2.18a.77.77 0 00.45.57c1.27.37 1.27 1.47 1.27 2.41a1.54 1.54 0 00.67 1.45c1.58 1 3.18 2 4.79 2.93.47.28 1 .23 1.15-.34.47-1.55 2-2.53 2.25-4.21.09-.54.52-1.36 1.24-1.12.48.16.84.85 1.12 1.37a1.5 1.5 0 010 1c-.25.71-.58 1.4-.93 2.23.32.19.66.4 1 .57 1.08.51 1.13.86.24 1.61a8.29 8.29 0 00-.71.79c.28.19.42.36.61.41.64.19 1.29.35 1.9.5 1.26-1.47 1.18-1.77-1-3.88.38-.85.77-1.67 1.11-2.51.19-.46.42-1 .94-.8a1.45 1.45 0 01.65 1.08 9.85 9.85 0 01-.23 1.84c-.09.73-.15 1.47.86 1.64.35-.44.65-.86 1-1.23a3.36 3.36 0 001.06-2.8c0-.31.32-.66.49-1a4.51 4.51 0 011 .65 1.76 1.76 0 01.33.86c.17.89.31 1.79.46 2.68 1.41-.32 1.49-.41 1.51-1.66a1.46 1.46 0 01.07-.6c.46-.76 1-1.49 1.45-2.24 1.75.86 2.24 3 1.16 5.67a4.19 4.19 0 01.74.72 2.7 2.7 0 01.53 1.19 3.54 3.54 0 003.24 3.33 17 17 0 012.75.48c1.4.4 2.77.89 4.13 1.4 2.2.82 4.37 1.7 6.79 1a1.76 1.76 0 01.46 0c2.24-.14 4.47-.24 6.7-.42 1.64-.14 2.28-.92 2.2-2.55a10.62 10.62 0 01-.21-1.07 8.37 8.37 0 01.31-2.42.93.93 0 011.73-.23 4.64 4.64 0 01.71 1.81 8.71 8.71 0 01.1 1.62 19.13 19.13 0 004.06-7.72c1.56-.29 1.12 1.35 1.88 1.73a14.28 14.28 0 011.47-2.26 18.2 18.2 0 012.44-1.81l.85 1.82c.15-.08.28-.16.42-.22.37-.15.93-.51 1.06-.4a1.65 1.65 0 01.53 1.18 11.74 11.74 0 01-.64 2.53c-.22.62-.59 1.18 0 1.88.56-.51 1-1.18 1.54-1.3s1.22.3 1.83.48a11.39 11.39 0 011.26-1.16 4 4 0 001.74-2.31 4.25 4.25 0 01.82-1.12c1.52.66.57 1.84.84 2.71a1.42 1.42 0 002-.93c.27-.63.92-.79 1.21-.35a6.9 6.9 0 011.15 2.36c.09.46-.48 1.07-.78 1.59s-.84.82-.25 1.33 1 0 1.38-.31a1.21 1.21 0 00.43-.62c.2-.9 1-1.18 1.64-1.57s1.06-.21 1.3.52c.14.39.11.84.28 1.21a3.83 3.83 0 00.71.83c.69-.72.26-1.26.1-1.76-.78-2.35-.06-4.41 1.23-6.34.43-.65 1-.68 1.37-.05s1.1 1.54.66 2.6a15.78 15.78 0 00-.55 1.93 1.19 1.19 0 00.67 1.65 11.22 11.22 0 00.27-1.23c0-.19-.14-.39-.17-.6a2.43 2.43 0 011.13-2.21 1.57 1.57 0 011.94.89 4.76 4.76 0 01.37 1.75c.06.41-.28.91.19 1.18.45-.49.81-1.26 1.26-1.31 1-.1 1.39-.7 1.86-1.42s1.2-.82 2-.13a2.24 2.24 0 01.64 1.85c0 1.2.14 2.28 1.57 2.67a1.54 1.54 0 01.7.6 1.87 1.87 0 002.1.63 22.33 22.33 0 012.9-.52 1.59 1.59 0 001.47-1 5.59 5.59 0 00.6-1.59c.2-1.46 1.29-2.2 2.29-3 .37-.31.79-.22 1.1.34-.61.92-1.55 1.81-1.79 2.87s-1.42 2.06-.94 3.42l2.57-.83c-.61-2.64 1.29-4.14 2.74-6a3.14 3.14 0 00-.37-.73 1.36 1.36 0 01-.09-1.85c.56-.76 1.16-1.5 2.27-1.4a2.24 2.24 0 011.87 2.59c-.22.85-.36 1.72-.49 2.36a18 18 0 012.62 1.05c.71.44.66.89.08 1.53l-.77.86a.72.72 0 001.09.42 4.73 4.73 0 011.75-.62c1.68 0 2.58-.67 3.45-2.15 1-1.67 1.29-3.1.27-4.73a1.15 1.15 0 01.23-1.65c.74-.64 1.51-1.25 2.27-1.88a3.14 3.14 0 011.47 2c.2.57.39 1.18 1.44 1-.27-.73-.52-1.34-.71-2a2.23 2.23 0 01-.17-1.17 3.13 3.13 0 00-.17-2.11 2 2 0 011.33-2.6 1.74 1.74 0 012.31 1 3.36 3.36 0 01.42 1.48c0 .87-.11 1.76-.16 2.64v1.07c.73.15 1.46.09 1.88.43a1.63 1.63 0 01.37 2.24c-.38.65-.29 1.18.58 1.53.52-.56 1-1.28.71-1.93a2 2 0 01.46-2.39c.16-.16.15-.48.25-.72.18-.47.27-1.11.62-1.34s.94 0 1.44.05a1.8 1.8 0 00.29-1.9 3 3 0 01.92-3.26 1.5 1.5 0 012.52.13 7 7 0 01.66 1.56c.13.34.26.69.45 1.16a1.7 1.7 0 00.79-2.18A1.26 1.26 0 01241 221a1.15 1.15 0 011.4-.36 1.36 1.36 0 01.92 1.49c-.35 1.21.34 1.45 1.33 1.77.43-.65.81-1.31 1.29-1.91.71-.89 1.67-.77 2 .3a3.14 3.14 0 01.06 2 3.19 3.19 0 00.42 2.85c1.31-.22 2.59-.37 3.84-.66a18.54 18.54 0 018.35 0 16.81 16.81 0 007.53.11 4.38 4.38 0 002-1 7.27 7.27 0 012.86-1.79 10.76 10.76 0 001.69-.78 6.78 6.78 0 015.42-.69 2.91 2.91 0 001.51.22c1.31-.39 2 .23 2.77 1.17a2.08 2.08 0 001.37.81 8.86 8.86 0 013.71 1.05 12.82 12.82 0 005.45 1.17 2.33 2.33 0 001.3-.38 14.05 14.05 0 015.1-2.24 3.93 3.93 0 002.61-2.07 3.28 3.28 0 013.43-1.94 2.53 2.53 0 002.39-1.13 16.22 16.22 0 001.05-1.55 4.2 4.2 0 012.77-2.07c2.09-.53 3.93-1.38 5-3.59a4.54 4.54 0 014.44-2.66 4.58 4.58 0 001.79-.44c1.16-.47 2.28-1 3.42-1.53a7.22 7.22 0 015.13-.69 25.72 25.72 0 013.92 1.49 1.58 1.58 0 001.87-.12 20.58 20.58 0 002.19-2.19c1.6-1.86 3.43-3.09 6.05-2.8a5 5 0 002.06-.55 19.42 19.42 0 012.88-1.15 17.17 17.17 0 006.43-2.69c1.42-1 2.86-1.9 4.28-2.87a6.63 6.63 0 015.37-1 6 6 0 004-.68c2.74-1.23 5.52-2.38 8.29-3.57l2.67-1.16c-.66-.31-.95-.5-1.26-.6-.69-.22-1.41-.34-2.08-.61-2.12-.85-4.25-1.68-6.32-2.64-3.44-1.59-6.81-3.34-10.26-4.9a12.86 12.86 0 01-4.91-4.23 15.14 15.14 0 00-5.75-4.88 4.24 4.24 0 01-1.48-1.13 11 11 0 00-3.62-2.91 3.61 3.61 0 01-1-.74c-3-3.32-7.07-4.46-11.27-5.14a8.9 8.9 0 01-4.36-1.86 16.43 16.43 0 00-11.11-3.8 7.5 7.5 0 01-3.62-.78 25.72 25.72 0 01-3.7-2.31 27 27 0 01-4.72-5.17 29.72 29.72 0 00-2.72-2.78c-.6-.57-1.3-1-1.93-1.56a8 8 0 00-3.66-2c-1.42-.26-2.78-.83-4.19-1.17-2-.48-3.95-.85-5.92-1.3-2.36-.54-4.82-.72-7-1.84a8.45 8.45 0 00-1.6-.63 2 2 0 00-1.17 0c-1.78.71-3.52 1.51-5.3 2.23q-7 2.84-14 5.63c-5.89 2.34-11.8 4.65-17.7 7a8.9 8.9 0 01-4.2.92c-3.46-.32-6.94-.53-10.4-.85-2.38-.21-4.75-.51-7.12-.78-2.94-.32-5.88-.69-8.82-1-2.74-.26-5.49-.42-8.23-.68-2.58-.25-5.16-.56-7.74-.84s-5.26-.62-7.89-.87c-3.93-.38-7.86-.71-11.79-1.06-.31 0-.62-.1-.93-.14-1.49-.16-3-.33-4.49-.48-1.18-.12-2.38-.18-3.56-.32a25.6 25.6 0 00-6.31-.35c-3.59.44-7.08 1.09-10.12 3.23a5.59 5.59 0 01-.66.41 21.74 21.74 0 01-8.06 2.71c-2.57.3-5.19.12-7.71.9a3.89 3.89 0 01-1.08 0c-1.28 0-2.58 0-3.85.15a17.65 17.65 0 00-3 .67 15.88 15.88 0 00-3.36 1.16c-1.9 1.07-3.69 2.33-5.51 3.53-1 .69-2.06 1.41-3.07 2.14-1.22.87-2.45 1.73-3.63 2.66s-2.19 1.89-3.33 2.78a29.31 29.31 0 00-2.9 2.09 22.86 22.86 0 01-4.95 3.5 23 23 0 00-3.55 2.48 22.76 22.76 0 01-6.08 4 67.7 67.7 0 00-6.25 3.28v.33l5.12 1a10.72 10.72 0 011.51.36c.88.31 1.73.7 2.61 1a11 11 0 007.92.24 8.23 8.23 0 011.24-.17 47.1 47.1 0 005.16-1 4 4 0 013.54.33 7.87 7.87 0 005.2 1.31 5 5 0 013.13.62 5.83 5.83 0 004.38.65 4.08 4.08 0 013.91.9 2.55 2.55 0 002 .66c1.44-.16 2.87-.38 4.31-.51 2.53-.23 5.07-.44 7.61-.61a17.51 17.51 0 012.16.13 3.07 3.07 0 001.08.06c3.18-.87 5.59 1.1 8.21 2.24a.83.83 0 01.3.77.86.86 0 01-.73.39 9.58 9.58 0 01-1.86-.73c-1.79-.93-3.59-1.67-5.67-1.16a5.67 5.67 0 01-1.23 0h-3c-1.65.09-3.31.35-5 .34a32 32 0 00-7.65 1 29.76 29.76 0 00-10 5.06c-1.1.78-2.24 1.5-3.36 2.25-.22.15-.41.34-.68.56.26.16.39.29.52.3a23.79 23.79 0 016.48 1.62c1.59.58 3.09 1.09 4.82 1.68zm-41.77-21.27l-.07-.46a13 13 0 01-1.65 0 17.43 17.43 0 01-4.11-.72 24 24 0 00-5.55-1.35c-1.54-.23-3.08-.41-4.61-.67a5.26 5.26 0 00-2.13-.05 4.67 4.67 0 01-3.47-.53 6.6 6.6 0 00-1.4-.65c-2.74-.83-5.47-1.67-8.22-2.41a9.1 9.1 0 01-4.6-2.79 10 10 0 00-7.75-3.33 3.27 3.27 0 01-2.73-1.26 15.35 15.35 0 00-2.89-2.58 6.81 6.81 0 00-8.39-.62c-.28.15-.56.28-.82.45a37.1 37.1 0 01-8.5 3.43 19.29 19.29 0 00-5.76 2.69c-1.45 1.08-3.06 2-4.6 2.91l-.84.52a5.18 5.18 0 00.53.65c1.61 1.32 3.23 2.63 4.83 3.95 1.12.92 2.26 1.82 3.33 2.8a11.81 11.81 0 005.82 3.13 4.7 4.7 0 012.1.89 9.24 9.24 0 003.57 1.85 2.9 2.9 0 01.84.38 60.77 60.77 0 0010.46 5.22 15.54 15.54 0 013.38 1.56 2.44 2.44 0 003 .14 33.76 33.76 0 018.19-3.38 9.71 9.71 0 004.42-2.52c1.62-1.51 3.13-3.2 5.27-4.09a40 40 0 004.09-1.91 6.43 6.43 0 013.12-.79c1.86 0 3.73-.26 5.59-.25 1.17 0 2.4-.62 3.5.13a3.94 3.94 0 003.94.42c.28-.12.62-.1.91-.21s.82-.36 1.2-.55zm24.52-16.76c-.25 0-.46-.07-.62 0a2.81 2.81 0 01-2.91-.54 7.64 7.64 0 01-1.44-1.4c-1.29-1.58-3.23-1.94-5-2.7-.06 0-.18.08-.31.14.32 1.25 2.11 1.59 2 3.33-.49-.05-1.13.06-1.29-.17-.84-1.17-2.44-1.93-2.09-3.56-1.07-.91-2-1.7-3-2.52-1.1-1-2.16-2-3.79-1.89a2.72 2.72 0 01-1-.36 22.41 22.41 0 00-2.15-.92 1.66 1.66 0 00-1.29.08 4.8 4.8 0 01-3.36 1 16.15 16.15 0 00-2.77.35c-.5.1-1 .23-1.2-.33s.27-.93.74-1.17a1.77 1.77 0 01.59-.19c1.08-.05 2.16-.07 3.24-.14a6 6 0 001.06-.24c-.27-.33-.37-.56-.53-.64a19.28 19.28 0 01-4.21-2.91 2.9 2.9 0 00-4-.36 7.26 7.26 0 01-.83.44 5.79 5.79 0 01-4.36.7 3.55 3.55 0 00-2.76.59 4 4 0 00-2.15 2.12 6.39 6.39 0 01-3.09 3.57 4.13 4.13 0 00-2.2 2.33c-.63 2.06-2 3.61-3.3 5.25a9.46 9.46 0 01-1.84 1.67c-1.45 1.1-3 2.12-4.39 3.22a10.85 10.85 0 00-1.24 1.3 5 5 0 002.81 2.07c2.62.84 5.26 1.6 7.89 2.4a14 14 0 012.65.9 6.41 6.41 0 003.15.65c1.55 0 3.11.13 4.65.31a28.07 28.07 0 015.67.91 22.24 22.24 0 009.29 1.52c.21 0 .42.06.63.05a4.31 4.31 0 001.08-.11c2.72-.89 5.44-1.8 7.51-3.93a19.73 19.73 0 015.74-4 6.77 6.77 0 002-1.27 27 27 0 015.73-4.3c.33-.24.79-.42.69-1.25zm316.1 23.4c-1.35-.68-2.32-1.24-3.35-1.67a3.5 3.5 0 01-2.1-1.76 7.63 7.63 0 00-3.88-3.83c-.23-.12-.41-.33-.64-.45a28.43 28.43 0 00-4.18-2.06 6.37 6.37 0 01-4.34-3.7 3.38 3.38 0 00-2.25-2c-1.72-.55-3.19-1.83-5.14-1.65-.14 0-.28-.12-.43-.17a8.27 8.27 0 01-3.38-2.17 5.93 5.93 0 00-3.61-2c-1.45-.15-2.91-.12-4.35-.26a5.07 5.07 0 01-2.21-.58 3.78 3.78 0 00-4.51.18l-1.17.78a6.41 6.41 0 01-3 1.2 8.15 8.15 0 00-3.92 1.59c.4.24.66.39.9.55.9.59 1.83 1.15 2.69 1.79.36.28.69.75.2 1.2s-.73 0-1.08-.22a8 8 0 00-2.23-1.37c-2.4-.65-4.84-1.12-7.27-1.65a1.32 1.32 0 00-.62.05 4.11 4.11 0 01-2.74-.21 1.9 1.9 0 00-1.31 0 8.5 8.5 0 01-4.19 1 1 1 0 00-.59.17 10.31 10.31 0 01-3.3 1.46s0 .17-.05.32a17.55 17.55 0 016.94 6 10.55 10.55 0 003 2.71 46.75 46.75 0 005 2.54c2.35 1.11 4.71 2.21 7.1 3.21 2.77 1.16 5.72 2 8.36 3.38a3.56 3.56 0 004.44-.42c.13-.09.26-.18.4-.26 3.24-1.85 6.53-3.34 10.46-2.83a54.47 54.47 0 007 .23 5.19 5.19 0 002.22-.54 4.13 4.13 0 013.3-.23c1.76.6 3.57 1.05 5.33 1.65a5.51 5.51 0 011.55 1c.41.32.74.74 1.13 1.08a1.77 1.77 0 002.3.26c1.05-.6 2.11-1.36 3.52-2.32zM377.54 163c-.83-.92-1.71-1.8-2.47-2.77a4.88 4.88 0 00-2.61-1.85 4.34 4.34 0 01-3.2-3.11 3.42 3.42 0 00-3.6-2.63 9.34 9.34 0 01-5.08-1.73 71.21 71.21 0 00-6.46-3.43 3.26 3.26 0 00-2.87-.07c.37.42.63.73.91 1 1.25 1.39.87 1.76-.05 2.95a1.16 1.16 0 01-1 .31c-.55-.23-.41-.76-.16-1.2.14-.26.3-.52.42-.7-.34-.65-.66-1.18-.9-1.75a1 1 0 00-1.24-.66 2.89 2.89 0 01-2.26-.3 2.61 2.61 0 00-3 .55 14.07 14.07 0 01-2 1.47c-2.88 1.45-5.77 2.86-8.7 4.21a9.62 9.62 0 01-2.41.56c-1.57.27-3.15.51-4.73.77-.07 0-.13.14-.33.36a7.13 7.13 0 001 .59 12.06 12.06 0 011.6.55c1.07.63 2.08 1.38 3.14 2a11.38 11.38 0 002.57 1.42 52.6 52.6 0 005.15 1.17 15.77 15.77 0 017.36 3.88 11 11 0 002.9 2.07 3 3 0 01.89.61 2.49 2.49 0 002.85.65 8.78 8.78 0 001.81-.84 4.23 4.23 0 012.75-.87 3.55 3.55 0 001.78-.4 5 5 0 013.85-.43 45.77 45.77 0 006.31.83 3.27 3.27 0 001.74-.48c1.81-1 3.51-2.25 5.68-2.39.08.04.18-.16.36-.34zm-147.7-83.85c.69 1.44 1.25 2.6 1.79 3.77 1.59 3.44 3.16 6.89 4.76 10.32a2 2 0 002.29 1.44 21.41 21.41 0 012.78-.22 37 37 0 005.27-.11 47 47 0 017.39-.61h6.48a1 1 0 00.55-.17c.93-.73 1.64-.23 2.34.39 1 .89 1.05.91 2.73.43l-2.05-.49c.07-1.1-.81-1.45-1.58-1.89-2.75-1.58-5.51-3.13-8.25-4.72-4.86-2.82-9.7-5.67-14.55-8.49a2.21 2.21 0 00-1.17-.31c-1.86.09-3.72.23-5.58.38-.95.02-1.9.13-3.2.28zM224 45a8.88 8.88 0 00-5.16 1.48 16 16 0 00-6.64 9.12c-.52 1.72-.47 1.77 1.26 1.81 2.86.07 5.71.08 8.57.11a30.1 30.1 0 017.22.5 3.65 3.65 0 00.47 0 22.92 22.92 0 014.25.62c2.46.83 2.3-.1 2-1.78 0-.15-.08-.3-.11-.45a17.49 17.49 0 00-5.37-8.79A9.43 9.43 0 00224 45zM100.09 153.09l-.45-.5c-1.07 0-1.35 1.12-2 1.72s-.28 1 .42 1.1c1.76.21 3.19 1.2 4.75 1.88a3.38 3.38 0 011.57 1.22c1.34 2.37 3.72 1.87 5.78 2.21.21 0 .48-.17.69-.31 2.82-1.95 5.6-3.95 8.46-5.84 2.64-1.75 5.34-3.45 8.66-3.61.22 0 .42-.18.93-.41a5.09 5.09 0 00-1.4-.49 4.7 4.7 0 01-3-1.25c-1.73-1.4-3.52-2.76-5.1-4.32s-3.19-1.38-4.87-1a11.78 11.78 0 00-3.29 1.68c-1 .66-2 1.45-3 2.21a3 3 0 00-.5.61 3 3 0 003.28-.57.73.73 0 011.2.13 1.2 1.2 0 01-.27 1.07 16.3 16.3 0 01-1.89 1.62.91.91 0 01-.72.15c-1-.49-2-1-3.12-1.64-1.79.93-4 1.6-5.5 3.31 1 1.25 1 1.26-.29 2.28-.16.13-.33.25-.48.39-.37.33-.79.66-1.21.2s-.13-1 .31-1.32a6.42 6.42 0 011.04-.52zm106.21-47.83c-.18 1.38-.79 2.65-.12 3.95v5.63c0 .82-.17 1.65-.17 2.47 0 1.61.13 3.21.12 4.82s-.09 3.29-.15 4.93c-.08 2.27.3 4.58-.71 7 .55.2 1.1.61 1.53.51.7-.15.8-.87.73-1.54a.77.77 0 010-.15c0-1.75-.4-3.53.34-5.24.11-.24 0-.6-.08-.91a16.19 16.19 0 01-.21-1.84c0-1.44-.05-2.89 0-4.33a5.63 5.63 0 01.64-1.58c.28.3.46.41.47.52a45.34 45.34 0 01.14 4.8c-.15 2.28-.05 4.55-.06 6.82a1 1 0 00.9 1.09c1.07.16 2.13.42 3.21.52.53 0 1.39 0 1.56-.28a5 5 0 00.86-2.72 21.54 21.54 0 01.05-7.12 4.91 4.91 0 000-.77v-7a10.51 10.51 0 00-.27-3.24 8.14 8.14 0 00-5.58-5.1c-.14.14-.28.22-.28.29a6.44 6.44 0 01-.39 3 1.1 1.1 0 000 .62c.59 2.26.14 4.56.14 6.83a3.09 3.09 0 01-.41 1h-.38a7.16 7.16 0 01-.41-1.54c-.05-1.19 0-2.39 0-3.59s.14-2.68.16-4c0-.88-.12-1.76-.06-2.64.13-1.47.03-1.59-1.57-1.21zm-37.24 28.42a11.62 11.62 0 01-2.06 0 18.7 18.7 0 01-1.9-.68 20.05 20.05 0 00-6.18-.39 3.14 3.14 0 00-1.36.3c-1.12.61-2.48 1.05-2.82 2.48a5.46 5.46 0 01-2.85 3.5 5.18 5.18 0 00-1.84 1.82 7.51 7.51 0 01-3.58 3.33c-1.13.52-2.28 1-3.41 1.52a8.16 8.16 0 00-1 .72c.78.33 1.37.52 1.9.81a1.34 1.34 0 001.7-.21c.62-.54 1.36-.95 2-1.45a1.43 1.43 0 011.74-.14c.12 1.82-2.23 1.34-2.55 2.8 1 .25 1.73-.35 2.47-.78a30.88 30.88 0 014.87-2.74 40.35 40.35 0 016.21-1.34c.73-.14 1.45-.21 1.8-1A2.28 2.28 0 01164 141c1.12-.27 2.34-.55 2.89-1.85.3-.72 1-.8 1.72-.79 1.77 0 2-.11 2.78-1.79-.83-.97-2.94-.83-2.33-2.89zm54.39-28.8a9.82 9.82 0 001.05.1 5.78 5.78 0 015.57 5.87 43.54 43.54 0 00-.28 5.58 29.71 29.71 0 01-.08 7 3.25 3.25 0 00.08 1.07c.23 1.36-.22 1.9-1.53 1.74-1.13-.13-2.26-.31-3.39-.49-1.46-.23-1.66-.09-1.68 1.36 0 2 0 4-.08 5.93 0 .71.23 1.07.95 1.15 2.37.24 4.73.53 7.1.73.31 0 .73-.31 1-.59a1.62 1.62 0 00.13-.9v-12.35-7.33c0-3 0-5.92-.11-8.87 0-1.36-.48-1.62-1.72-1.23a2 2 0 01-.75.17c-1.43-.1-2.85-.21-4.27-.35-1.13-.12-1.58.16-1.99 1.41zm-121.36 36.24a3.15 3.15 0 00-3.91-1.68 4.36 4.36 0 01-1.72.59 2 2 0 00-2 1.2 2.65 2.65 0 01-1.6 1.4c-1.06.26-1.43 1.07-1.72 2.17.44.21.84.41 1.25.59.81.36 1.62.7 2.43 1.05.66.29.8.76.34 1.53-.45-.1-.94-.2-1.4-.34-1.09-.33-2.15-.76-3.26-1a5.65 5.65 0 00-5.44 2.47c.16.11.34.34.5.33a7.78 7.78 0 014.09 1.34 4.24 4.24 0 001.35.32 5.23 5.23 0 013.06 1.39c.61.6 1.3 1.14 1.94 1.69a26.65 26.65 0 012.37-2.38 48.12 48.12 0 014.12-2.8c.74-.47 1.6-.74 2.38-1.15s1.81-1 2.7-1.56c.58-.34.64-.8.14-1.26-.84-.78-1.68-1.56-2.54-2.31a1.21 1.21 0 00-1.43-.18 6.86 6.86 0 01-4.72-.28c.4-1.25.4-1.25 3.07-1.13zM221 136c.42-.41 1.05-.48 1-1.38-.1-2.34 0-4.68 0-7v-4.33c0-1.44.08-2.81.12-4.21 0-.77.05-1.54.07-2.31a34.28 34.28 0 01.17-6.34c.29-1.38-.24-2.65.09-4a.79.79 0 00-.85-.91.92.92 0 00-1 1V113.23a30 30 0 00-.21 3.4 24.8 24.8 0 01-.34 7.83 2.91 2.91 0 000 .78c.08 2.23.18 4.46.22 6.69a4.09 4.09 0 01-.4 1.23c-.93-.45-.82-1.11-.82-1.72 0-3 .07-6 .08-9v-10.75c0-.67.12-1.34.15-2 .06-1.51.15-3 .13-4.52 0-1.3-1.18-2.5-2.23-2.28-1.71.37-3.37-.22-5.05-.1-.66 0-1.34 0-2 .08a.88.88 0 00-.83 1.13 4 4 0 00.57.16c3 .27 6.34 2.86 7 5.82a26.16 26.16 0 01.33 5 14.92 14.92 0 01-.22 2 4 4 0 00-.08 1.23 15.83 15.83 0 010 7 3.23 3.23 0 000 .93c.1 1.14.27 2.27.31 3.41s.17 2.5-.78 3.49c.86 1.28 2.17.51 3.15.79.42.67.19 1.74 1.42 2.17zm-25.39-11.66v6.59c0 .7.35 1 1 1.09.92.11 1.84.29 2.76.44a1.16 1.16 0 001.48-1.14 4.21 4.21 0 01.48-2.41.65.65 0 000-.57c-.66-1.28-.39-2.67-.37-4 0-1-.29-2.2.7-3.08.15-.13 0-.67-.09-1a13.57 13.57 0 010-6.46 3.37 3.37 0 000-1.61c-.38-1.52-.61-3.1.48-4.44a24.59 24.59 0 012.36-2.43 1.57 1.57 0 00.18-2.54 1.49 1.49 0 00-1.52-.55 4.13 4.13 0 01-1.21.1c-1.39-.12-2.77-.3-4.16-.44a4.13 4.13 0 00-.93 0 1.38 1.38 0 00-1 2.09 13 13 0 00.92 1 5 5 0 011.6 3.27c0 2.58.08 5.16.1 7.74v5.74c0 .75-.1 1.5-.15 2.28zm67.75-6.38a12.53 12.53 0 01-.2-1.49c0-5 .05-10 .06-15 0-.12-.17-.24-.32-.43l-.67 1.09-1.07-.51c-1.22 1.07.31 2.72-1.11 3.93l-.9-2.23h-.34a6.63 6.63 0 00-.23 1.38c0 1.87.14 3.74.18 5.61v4a1.61 1.61 0 01-.95 1.68 13.88 13.88 0 01-.3-1.85v-5.16a4.2 4.2 0 00-.22-1h-.38a13.21 13.21 0 00-.18 4.07v8.27l1.48-.19c.11 2.22.24 4.34.33 6.46v2.18a4.12 4.12 0 00.21.82c.76-.12.76-.61.75-1.07 0-.73-.09-1.46-.09-2.18v-13.6c0-.48 0-.95.63-1.08.72.3.71.92.7 1.56q0 3.2-.06 6.41a6.39 6.39 0 00.11.85h.18c.07-1 .13-2 .2-2.92.8-.15.93.27 1.05.68a8.57 8.57 0 01-.52 4.85l-.75-1.46h-.2v2.55l.93.26c1.08.78-.53 2.53 1.34 3 .55-1.35-.36-2.82.63-4.34a4.64 4.64 0 01.51 1.29 15 15 0 01-.13 2.32c-.05.48 0 .81.53.93.74-.3.56-.94.57-1.48q.12-9.21.21-18.43v-4.54c0-.46 0-.94-.83-1.08 0 .65-.09 1.24-.1 1.83v7.19c0 1.76 0 3.52-.05 5.28a1.2 1.2 0 01-1.03 1.52zm-96.8 23.36l.08.39c1.32.21 2.64.49 4 .61 2.79.27 5.59.41 8.37.69 3.62.36 7.22.82 10.83 1.2 1.6.16 3.22.16 4.82.32 3.3.35 6.59.79 9.89 1.14 3.61.37 7.23.68 10.84 1l6.67.61c1.86.18 3.71.39 5.57.58 2.68.28 5.36.6 8 .84 2 .18 4 .54 5.94-.54a19.3 19.3 0 012.74-1.14q9.18-3.51 18.35-7c3.82-1.46 7.63-2.95 11.44-4.42l.82-.34-.38-.51c-.94.3-1.9.56-2.83.9-3.14 1.18-6.26 2.4-9.4 3.58-1.65.62-3.33 1.14-5 1.76-3 1.13-6.09 2.32-9.14 3.45-1.75.64-3.58 1.09-5.28 1.85-2.1.94-4.14 1.8-6.53 1.4-1.12-.18-2.29-.08-3.43-.19-2.37-.22-4.74-.7-7.11-.72-3.33 0-6.54-1-9.88-1-1.48 0-3-.62-4.46-.61-3.81 0-7.53-.79-11.31-.95-4.05-.17-8-1.12-12.1-1a9 9 0 01-1.24-.17c-3.4-.38-6.8-.78-10.2-1.13q-4.34-.43-8.67-.79a7.19 7.19 0 00-1.43.16zm71.23-8.12c.36.11.62.3.83.25 1.52-.32 3-.65 4.53-1.08.57-.16.79-.64.76-1.35-.1-3.12-.13-6.25-.15-9.37v-14.23a3.63 3.63 0 01.05-1.24c.59-1.54-.35-2.29-1.24-3a12.05 12.05 0 01-2.26.49c-1.36 0-1.36 0-1.88 1.41a3.21 3.21 0 011.29-.09 3.69 3.69 0 012.48 2.79 47.83 47.83 0 01.2 5.75v2c0 .66.17 1.55.2 2.33.09 2-.35 3.91.18 5.87.21.79-.19 1.14-1.1 1.35s-1.85.3-2.75.55-1.1.66-1 1.49a16.35 16.35 0 01-.17 6.05zM179.6 98.65a2.48 2.48 0 002.52 1 13.08 13.08 0 011.53-.09c.72 0 1.43.2 2.15.22h4c.72 0 1.44.13 2.16.16a50.66 50.66 0 015.24.22c1.31.19 2.69-.28 3.94.43h.31c1.53-.06 3.06-.13 4.6-.17.2 0 .41.08.61.09h1.68c.3 0 .66-.18.9-.08 1.59.7 3.29-.15 4.9.41.49.17 1.2-.26 1.67-.08 1.56.62 3.16 0 4.74.31a27 27 0 004.58 0 2.93 2.93 0 01.88.29c.25.09.53.33.71.27 1.18-.4 2.38.08 3.51-.07 1.62-.21 3.18.17 4.78 0 1.13-.09 1.23-.07 1.64-1.45a8.3 8.3 0 00-3-.28 9.45 9.45 0 01-3.39-.1 3.87 3.87 0 00-1.79 0 5.24 5.24 0 01-4.32-.63 4.34 4.34 0 01-5-.2 6.83 6.83 0 01-2.07.48 39.09 39.09 0 00-6.49-.08 6.73 6.73 0 01-1.08-.17 4.63 4.63 0 00-1.23 0 9.41 9.41 0 01-4.32 0 5.62 5.62 0 00-1.23 0c-1.54 0-3.12.37-4.5-.68a3.7 3.7 0 01-3 .58 10.92 10.92 0 01-2.27-1.13c-1.44 1.22-2.82 1.26-5.13 0a5.76 5.76 0 01-4.48.4 2.54 2.54 0 00-.91-.09c-.93.11-1.79.27-2.84.44zm70.2 7.89c-.48.24-1 .44-1.5.74a1.64 1.64 0 00-.8 1.57c0 5 .09 10 .07 15 0 2-.19 3.93-.34 5.89 0 .53.16.88.6.92a3.27 3.27 0 002.66-.56 1.36 1.36 0 00.49-.9c0-1.72 0-3.43-.09-5.15s-.17-3.32-.16-5c0-3.58.12-7.17.2-10.75a1.75 1.75 0 00-1.13-1.76zm-25.19.38c-1.62 1.46-1.72 1.78-1.42 3.73a13.13 13.13 0 01.19 2.16c0 1.8-.15 3.6-.18 5.39v4.79a1.32 1.32 0 00.78 1 27.69 27.69 0 003.53.45 2.67 2.67 0 00.94-.31 7.35 7.35 0 01-.66-2 15.9 15.9 0 01.41-5.7 1.14 1.14 0 000-.73 7.74 7.74 0 01-.34-3.69 5.1 5.1 0 00-3.25-5.09zm-37.46-5.26v4.85c0 1.59 0 2.89-.06 4.33-.14 2.63.44 5.3-.45 7.89a1.44 1.44 0 000 .62 28.51 28.51 0 01-.08 8.65 9.42 9.42 0 00.1 2.48 1 1 0 001.08.89c1 0 1.95.18 2.92.24s1.24-.19 1.25-1.13v-5.92c0-.75-.43-1-1.09-1h-1.56a1.06 1.06 0 01-1.13-1c-.05-1.71-.1-3.41-.06-5.11 0-1.14.3-2.27.31-3.4 0-1.92-.15-3.83-.17-5.75a4 4 0 012.64-4.16c.53-.21 1.1-.43 1.09-1.16s-.68-1-1.24-1.22a2.79 2.79 0 00-1.08-.12c-.77-.07-1.49-.02-2.47.02zm13.11 40.26c1.84.17 3.68.32 5.51.52.87.1 1.71.36 2.58.46s2 .14 2.92.18c.66 0 1.34-.06 2 0 2.35.26 4.64 1.15 7.09.66a6.38 6.38 0 012 .29 15.06 15.06 0 003.23.42c3.15-.23 6.18.76 9.3.77 1.72 0 3.45.67 5-.53a2.41 2.41 0 01.73-.24c1.81-.61 3.63-1.19 5.43-1.84s3.73-1.47 5.61-2.15c3-1.11 6.11-2.16 9.16-3.26 1.84-.66 3.65-1.41 5.5-2 2.09-.72 4.22-1.33 6.32-2 .22-.07.31-.53.46-.81-.27-.07-.58-.24-.81-.17-.44.13-.82.46-1.25.61-2.79.91-5.6 1.75-8.38 2.7-3.56 1.22-7.09 2.51-10.64 3.76-.87.31-1.77.54-2.63.85-1.35.5-2.67 1.06-4 1.56s-2.72 1-4.1 1.46a16.28 16.28 0 01-3.72 1 39.64 39.64 0 01-5.76-.17c-2-.17-4-.8-6-.67-3.67.23-7.21-.71-10.84-.8-2.83-.07-5.67-.33-8.5-.53a6.73 6.73 0 01-1.68-.3 6.55 6.55 0 00-4.53.23zm-70.5 1c1.66 1.31 3 2.46 5.05 2.25a9.59 9.59 0 013.23.3 3.69 3.69 0 002.69-.36c1.44-.7 3-1.28 4.35-2.05 1.08-.61 2.39-1 3.1-2.4a8.73 8.73 0 00-1.08-.61 22.18 22.18 0 01-3.29-1.33c-2-1.26-3.89-1.5-5.84.11a2.71 2.71 0 01-1.69.62 3.85 3.85 0 00-3 1.39 10.93 10.93 0 01-2 1.43 14.62 14.62 0 01-1.52.65zm72.86-3.92a6.16 6.16 0 003.55.55 11.42 11.42 0 012.48 0c1.23.15 2.44.44 3.66.67a13.44 13.44 0 004.16.29 9.65 9.65 0 014.45.32 10.71 10.71 0 004.21.52c1.5 0 3 .15 4.49.27 1.19.1 2.36.27 3.54.39s2.17.2 3.25.25a3.38 3.38 0 001.23-.13c1.93-.65 3.86-1.33 5.78-2 1.41-.5 2.81-1.05 4.24-1.51 2-.64 4.05-1.18 6.05-1.84 2.26-.73 4.48-1.56 6.73-2.32 2.83-1 5.68-1.89 8.51-2.85.48-.16 1-.3 1-1.1a4.78 4.78 0 00-.92.12c-1.18.39-2.35.82-3.53 1.21l-6 2c-2.26.75-4.51 1.51-6.77 2.25s-4.35 1.37-6.51 2.1-4.31 1.48-6.44 2.28a12.21 12.21 0 01-5.87.62c-2.58-.31-5.17-.46-7.75-.65-1.89-.15-3.85.16-5.64-.79-.19-.1-.5 0-.75 0-2 0-4 .08-5.93 0-1.59-.08-3.17-.4-4.76-.59a11.67 11.67 0 01-2-.16c-1.53-.46-2.98.04-4.46.1zm33.58-1.85a1.6 1.6 0 001-1.65c-.05-4.83-.05-9.66-.05-14.49q0-6.8.07-13.6a1.32 1.32 0 00-1.12-1.4 1.66 1.66 0 00-.82 1.46q.09 6.72.09 13.44c0 4.79-.06 9.58-.1 14.38 0 .71-.06 1.47.93 1.84zm20.92-14.44c-1.92-.21-1.92-.21-1.82-2.09v-.94-9.36a7.07 7.07 0 011.53-5.09 3.88 3.88 0 00.66-2.64c0-.7-.38-1-1.07-1-1.18 0-2 1-2 2.44-.07 4.83-.19 9.65-.2 14.48 0 3.47.12 6.94.21 10.41a2.8 2.8 0 00.31.81 10.45 10.45 0 011.58-.47c.79-.11 1-.55 1-1.28v-4.06a8.34 8.34 0 00-.2-1.23zm-127 26.93c2.05.17 3.89 1.26 5.89.29a2.88 2.88 0 011.07-.09c2-.14 4-.26 6-.43a5.37 5.37 0 001.2-.49c-3.81-1.93-7.58-2.13-11.66-2.24a12 12 0 011.06 1.16c.13.18.22.59.13.68a1 1 0 01-.78.26 12.23 12.23 0 01-2-1.15 1.84 1.84 0 01-.82-1c0-.28.5-.62.78-.93a1 1 0 00-.17-.25 4.29 4.29 0 00-3.8-.84c-1.27.33-2.57.52-4 .79 1.74 2.3 3.2 3.22 5 3.16-.7-.6-1.94-.59-1.89-1.79a1.13 1.13 0 011.48-.16c.52.24 1 .49 1.54.75 1.47.64 1.47.64 1.01 2.26zm109.05-42.27c-1.23 1.16-1.23 1.16-1.12 2.76v9.53c0 1.08-.18 2.15-.24 3.23 0 .24.07.68.16.69a7.93 7.93 0 002.11.15c.57-.06.79-.61.8-1.18 0-1.25.09-2.5.09-3.74 0-1.77 0-3.54-.09-5.31-.06-1.49-.17-3-.32-4.48a1.72 1.72 0 00-1.35-1.67zm7.4 26v-3.43c-.09-2.06-.29-4.12-.34-6.19s.06-4.15.07-6.22v-10.29a2.7 2.7 0 00-.11-1.07 1 1 0 00-.73-.41c-.15 0-.38.3-.48.5a1.58 1.58 0 000 .62v12.47c0 4.75.39 9.52-.16 14.27 1 .53 1 .53 1.79-.27zm-52.23 1.7a6.39 6.39 0 01-.32-1.42c.05-2.16.2-4.31.23-6.47.05-2.52 0-5 0-7.55.05-4.77-.13-9.54.07-14.31a2.89 2.89 0 00-.09-.77c-.1-.43-.29-.84-.83-.69s-.61.46-.52 1a11.28 11.28 0 01.16 2V135.09zm43.26-34.12c.32.85.94.67 1.49.61 2-.23 3.91-.45 5.86-.75 2.61-.4 5.24-.49 7.86-.94 3.2-.56 6.5-.54 9.76-.83a22.73 22.73 0 003.36-.59c.56-.14 1.18-.42 1-1.12l-5.47.58a27.07 27.07 0 00-3.25.3 17.3 17.3 0 01-4.76.35 7.74 7.74 0 00-2.3.21 22.1 22.1 0 01-5.25.62c-1.13 0-2.26.24-3.39.34a20.19 20.19 0 01-3.1.21 1.8 1.8 0 00-1.77.99zm-45.84 4.66c-.52.25-.86.31-1 .51a4.28 4.28 0 00-1.08 2.69c0 4.09-.08 8.18-.12 12.27 0 .84.35 1.16 1.25 1.12s1-.26 1-1.18V107.9zm3.58 40.47v.3c1.2.21 2.39.49 3.6.63 2.73.3 5.48.52 8.21.79 2.06.21 4.12.49 6.19.67s4.35.28 6.52.48c2.58.24 5.16.55 7.73.84l10.21 1.15c.43 0 .92.19 1.16-.44a2.92 2.92 0 00-2.19-.67c-.94 0-1.87-.06-2.8-.15-1.5-.13-3-.31-4.48-.47l-3.87-.41c-.72-.08-1.44-.14-2.16-.21l-4.64-.51c-.51-.06-1-.2-1.54-.21a87.71 87.71 0 01-11.44-1.1 8 8 0 00-1.09-.06 30 30 0 01-6-.59 16 16 0 00-3.37-.06zm26.88-7.26c4.2-.72 8.05.48 12.1.64-.29-.85-1-1.27-.61-2.16.48-1.07.13-1.46-1-1.26a17 17 0 01-4.77-.2c-1.23-.13-2.46-.29-3.7-.36a6.17 6.17 0 00-1.46.27c.71 1.13.1 1.95-.52 3.05zm30-7.23a1.52 1.52 0 00.89-1.62c.09-2.46-.46-4.95.27-7.39a3.61 3.61 0 000-1.09l-.2-15v-.78c0-.26.06-.46 0-.62a3.76 3.76 0 00-.59-.61 3.34 3.34 0 00-.64.72c-.09.2 0 .51 0 .77.07 3.06.15 6.12.21 9.18v1.86c-.15 2.74-.47 5.48-.41 8.21a26.52 26.52 0 01-.12 4.63 1.63 1.63 0 00.62 1.72zm-47-23.42a3.66 3.66 0 00-2 4 6.34 6.34 0 01.23 1.67 17.55 17.55 0 01-.25 3.38c-.24 1.1.18 2.34.25 3.51a11.43 11.43 0 01-.13 1.54c0 .6-.05 1.2-.08 1.8-.05 1.28.25 2.71-.23 3.8s0 2.18.13 3.24c0 .2.46.48.68.47a.91.91 0 00.64-.55 4.54 4.54 0 00.15-1.38c0-3.48.06-7 .12-10.44a25.43 25.43 0 00.19-3.36 22.06 22.06 0 01.29-7.7zM92.85 224.8L91 222.68l-.76.7c1.18 1.84 1.17 2-.71 3.14-1.14.69-2.38 1.2-3.56 1.81-.19.1-.3.35-.53.63.4.18.66.33.94.42.64.19 1.29.36 1.94.52 2.2.54 4.51.68 6.51 1.94a3.4 3.4 0 001.08.23 1.79 1.79 0 00-1.49-1.83 1 1 0 01-.75-1.42 2.79 2.79 0 000-.65 10.38 10.38 0 01-1.24-.2 1.17 1.17 0 01-.62-2c.31-.38.63-.71 1.04-1.17zm125.49-87c.15-.64.28-1.24.41-1.84a.78.78 0 00-.65-1.05 8.13 8.13 0 00-1.22-.14c-2.41-.22-4.86 0-7.23-.68-.24-.07-.56.11-.82.17l-.24 2.91c3.31-.04 6.47 1.18 9.75.66zm3-60.69c1.51.38 1.63.45 2-.1a1.55 1.55 0 011.66-.71l3.62.07c.68-.86.68-.86.21-2-1.24.21-2.55 0-3.73.63a.8.8 0 01-.31 0c-2.24 0-4.47 0-6.7-.08-2 0-3.93-.17-5.9-.21-1.28 0-2.57 0-3.85.06-.11 0-.22.19-.37.32.34.88 1.05.84 1.79.84 3.39 0 6.77-.07 10.15-.08 1.09.05 1.09.08 1.48 1.29zM204.58 134l-9-.7.55 1.4-.87 1.24a61.43 61.43 0 009 1c.13-1.01.21-1.82.32-2.94zm29-29.32l-.51.12v1.51c.14 2.85-.1 5.7.22 8.56a70.22 70.22 0 01.09 8.08c0 3.54-.08 7.08-.09 10.62a4.48 4.48 0 00.32 1 2.14 2.14 0 00.5-1.93v-25.95a5.77 5.77 0 000-1.25 2.92 2.92 0 00-.51-.8zm5.63 34c1.76-.53 3.63-1 5.62-1.84l-1.64-1.39.89-1.94c-2.14.59-3.94 1.06-5.74 1.59-.31.09-.55.4-.8.58.58.94 1.07 1.83 1.69 2.95zm-47.54-5.53a9.65 9.65 0 00-1.45-.26 11.94 11.94 0 01-3.85-.43 2.06 2.06 0 00-2.28.92 13.53 13.53 0 00-.63 1.57l8 1zm26.87-62.92l-.15.35c1 .16 1.76.49 1.61 1.64a.84.84 0 00.89 1 .86.86 0 00.94-1c-.29-1.71.49-3.36.14-5.06-.2-1 0-1.24 1.12-1.57.11 0 .18-.22.33-.42a7.74 7.74 0 00-1.23-1.17 1.56 1.56 0 00-1.26-.17c-.27.15-.34.75-.41 1.17-.1.58-.13 1.18-.2 1.78l-1.84-.21c.45.46.63.79.82.8.88.06 1 .66 1 1.31a9.82 9.82 0 01-.27 1.48zm-2.49-6.91c-.6.73-.1 1.39-.07 2 0 .92-.65 1.15-1.49 1.5a1.87 1.87 0 011.08 2.47c-.47 1.32.15 2.5.1 3.77.81.19 1.51.36 1.72-.59a10.64 10.64 0 00.33-2.3c0-1.64-.12-3.29-.15-4.93-.01-1.46 0-1.48-1.5-1.97zM170 143.38l-.06.42a8.77 8.77 0 001.34.34c2 .21 4.11.39 6.17.57 1.6.14 3.21.24 4.8.42 3.3.38 6.59.82 9.88 1.19a10.36 10.36 0 001.84-.09v-.32c-1-.24-2.13-.8-3.12-.67-2 .26-3.92-.29-5.87-.45-1.32-.11-2.65-.2-4-.32a22.36 22.36 0 00-3.71-.34 18.73 18.73 0 01-5.07-.61 14.87 14.87 0 00-2.2-.14zM195.63 107a4.44 4.44 0 00-.23 1c0 .46.15.92.15 1.39q-.06 6.08-.16 12.17c0 .46.08.88.61.91s.58-.48.59-.89v-4.84c0-.82.17-1.65.18-2.48v-4.64a3.55 3.55 0 00-1.14-2.62zm66.68 34.8l-.11-.27a10.24 10.24 0 00-1.12.3c-2.32.89-4.62 1.81-6.94 2.7-4.25 1.63-8.52 3.24-12.76 4.88a9 9 0 00-1.4.91c.43.12.58.22.69.18l20.64-8.12a9.24 9.24 0 001-.54zm-90-4.38l-.12.47c.19.14.37.38.57.4 1.43.15 2.87.3 4.31.36 1.13.05 2.28-.14 3.39 0a17 17 0 013.61.63 11.73 11.73 0 003.85.16c1.25 0 2.5-.12 3.75-.18a6.6 6.6 0 00-3.59-.51 21.26 21.26 0 01-6.45-.7 6.27 6.27 0 00-2.61-.17 8.77 8.77 0 01-2.9-.12c-1.27-.09-2.54-.19-3.81-.3zm84.53-42.25v-.39c-2.8.37-5.61.11-8.43.32s-5.63.59-8.54.65c.28.93.89.76 1.35.74 2.38-.15 4.75-.33 7.12-.51 1.91-.14 3.82-.27 5.73-.44.93-.04 1.84-.2 2.77-.33zm-36.25-63a14.73 14.73 0 016.21-.2 1.2 1.2 0 00-.37-1.6 5.93 5.93 0 00-2-1.34c-1.33-.36-2.91.97-3.84 3.18zm5.06 31.57h-.56a11 11 0 00-.21 1.38 10.13 10.13 0 010 3 11.32 11.32 0 00-.15 4c0 .32.32.85.58.9.63.14.7-.41.74-.9.1-1.49.24-3 .3-4.48a16.54 16.54 0 00-.11-2.63 5.67 5.67 0 00-.59-1.23zm-48.89 70.48c-2.15-2.27-4.43-1.87-6.77-.61.85.75 1.71 1.51 2.58 2.26a.73.73 0 00.44.12c1.99.06 2.49.43 3.75-1.73zm37.06-63a8.45 8.45 0 01-.61-2c-.07-1.53 0-3.07 0-4.61 0-.24 0-.59-.11-.71a1.43 1.43 0 00-.9-.35c-.11 0-.33.48-.32.74.08 1.42.22 2.84.3 4.27a8.68 8.68 0 01-.12 1.23c-.06.82-.14 1.65-.14 2.47 0 .24.25.47.45.8zm-94.76 165.19c-.15.29-.33.47-.32.64a1.42 1.42 0 01-1.29 1.76c-.3.06-.55.37-1.11.76a20.38 20.38 0 002.93.71c.89.08 1.68.88 2.88.46-.44-.32-.7-.49-.93-.67l-.67-.55c.29-1.42.29-1.42-1.49-3.11zM210 59.66v.56c1.7.21 3.42 0 5.13 0l5.39.25C220 59 220 59 218.82 59s-2.18-.2-3.17.49c-.21.15-.6.08-.91.09zM230.3 69c.43 1.15.85 2.29 1.37 3.67l1.49.41v-3.79a5.63 5.63 0 00-.19-1zm21.53 65.4a11.72 11.72 0 01-1.5-1.35c-.76-1-.86-1-2-.49-.39.19-.77.42-1.1.6.35.91.65 1.69 1 2.57 1.21-.57 2.56-.48 3.6-1.37zM227.77 73a9 9 0 00.38-1.25v-1.09c.1-2 .24-4 .32-6 0-.23-.29-.48-.52-.83-.83 1.71-.95 7.66-.18 9.17zm-8-31.58a22.77 22.77 0 018.06.09c-1.64-2.22-5.12-2.26-8.06-.12zm27.4 63.87c.37 0 .54.12.66.07.76-.28 1.43-.87 2.34-.45.15.07.5-.14.67-.31.42-.46.17-1.4-.47-1.92s-1.62-.55-1.94 0c-.43.77-.8 1.62-1.26 2.58zm7.71 28.32c1.16-.52 2.38-.52 3.28-1.36l-2-1.76-1.7.69zM223.41 16.86l-1.19 1.36c.63 1.48.87 1.7 1.71 1.31.57-.25 1.45-.32 1.46-1.18s-.75-1-1.35-1.3c-.14-.05-.29-.05-.63-.19zm38.53 111.76a5.22 5.22 0 00-.9 1c-.34.75.19 1.67.87 1.54a18 18 0 002.16-.69zM112.84 238.8c1.46.75 1.91.62 2.76-.68.52-.79.4-1.28-.66-2.16-.4 1.17-.71 2.4-2.1 2.84zm114.08-9.87c1-2.82.94-3.78-.21-4.62-.1.31-.31.6-.25.84a5.81 5.81 0 01.12 2.75c-.07.3.21.68.34 1.03zm7.92-164c-.54.92-.52 3.92 0 6 .62-1.02.6-3.83 0-6.02zM104.72 236.78c.67.58 1.2 1 2 .65a1.61 1.61 0 00-1-2.06zm58.73-93.47l1.93.26c.61.07 1.25.53 1.89-.2-1.27-.37-2.44-1.43-3.82-.06zm59.93-107.87c.21 1-.32 2 .34 3.07 1.14-.51.6-1.44.7-2.14s-.17-.99-1.04-.93zm-.37 197h.42a12.64 12.64 0 000-1.74c-.06-.4-.38-.85-.85-.55a1.2 1.2 0 00-.31 1 5.81 5.81 0 00.73 1.26zM223 72.15l.29.06a8.18 8.18 0 00.66-2.13 1.85 1.85 0 00-1.15-2 10.43 10.43 0 01.53 2.06 10.13 10.13 0 01-.33 2.01zm14.46 150.55c-.76 1.19-.76 1.21-.2 2.22 1.09-1.07 1.11-1.24.2-2.22zm-3.79-147.63a2.71 2.71 0 003.35-.2c-1.16-.56-2.11.32-3.35.2zM219.61 13c.3-.88-.23-1.29-.9-1.49a.86.86 0 00-1.2.78zm26.87 89.92h-2.14c.3.66.59 1.17 1.23 1.14s.89-.39.91-1.12zm-9.31 35.44c-.82-.95-.82-.95-1.84-.11.86.93.97.94 1.84.13zM219.33 13.58a3.66 3.66 0 00-1-.11c-.25 0-.47.29-.7.44.21.25.38.62.65.72.6.22.87-.06 1.05-1.05zm5-6.77c0 .65.08 1.23.12 1.81.7.09 1-.22 1.06-.73s-.35-1-1.14-1.08zm-1.48 26.42c.83.46 1.55.73 2.38 0a1.85 1.85 0 00-2.34 0zm9.68 42.55c-.53-.82-1.12-1-1.6-.64-.14.12-.29.4-.24.52s.35.47.52.45a7.08 7.08 0 001.36-.33zM230.09 14l-.2-.48-1.65-.07-.14.37a3.85 3.85 0 001.12.78c.22.06.57-.38.87-.6zm-6.71-5.33L223 6.79c-1 1.08-1 1.42.38 1.88zm-.15 26.49l-.55-1.24-1.39 1 .13.22zm6.67-22.56c.21-.71-.1-1-.61-1.09s-.95.18-1 .89zm-73.15 226.79c1.12-.88 1.12-.88.69-1.94-.66.55-.56 1.27-.69 1.94zm75.76-141.34c.69.66 1.23 1 2 .24a1.17 1.17 0 00-2-.24zm19.19 3.59c0 .76.34 1.06.88 1s.91-.26.7-1zm-43.64-4.43c-.8-.49-1.35-.52-1.88.18.65.71 1.2.61 1.88-.18zm22.22-24.67l-.34-1.86c-1.06.95-1.02 1.26.34 1.86zm-8.65-11.87l2.43-.71c-1.34-.33-1.36-.32-2.43.71zM211.2 232.28l-.64-.78c-.25.21-.68.41-.7.64s.34.53.54.8zm57.88-93l-.23-.47-2.43 1.19.13.29zM201 97.41a1.08 1.08 0 001.75-.11c-.68-.59-1.21-.61-1.75.11zm62 43.83l.14.42c.76-.45 1.76-.32 2.29-1.36zm-49.76-44.05c-.75-.4-1.27-.54-1.74.11.8.61.8.61 1.74-.11zM199 141.85c-1.46-.72-1.46-.72-2.29 0zm27.78-107.16l-1.78-.75c.29 1.06.59 1.51 1.78.75zM180.86 134c.82.4.82.4 1.41-.21a.91.91 0 00-1.41.21zm79-32.86a3.4 3.4 0 00-.9-.47c-.11 0-.27.33-.4.51.19.13.38.36.58.37s.35-.19.69-.4zm-54.16 34.63c.76.85.76.85 1.37 0zm15.77 1.42c-.49-.65-.9-.68-1.35-.1.33.54.71.68 1.32.11zm3.25-93.81c.88.39.88.39 1.56-.08a1.25 1.25 0 00-1.59.09zm-43.47 53.2c-.52-.41-.9-.42-1.28.12.5.53.87.5 1.28-.12zm26.06 7.53c.3-.73.2-1.06-.59-1.18 0 .26-.1.49 0 .63s.28.31.59.55zm-11.57 33.75l-1.5.13c.66.52 1.12.59 1.5-.13zm32.35-40.09l-.14.4 1.05.24.08-.33zm48.49 36.78l-.08-.37c-.46-.14-.9-.23-1.18.66zm-82.65-32.35v-.5h-1.1v.35zm26.36 1.2c.15-.89.15-.89-.8-1.15zm58.58 31.93l-.12-.4c-.54-.12-.87.13-1.25.95zm-32.44.27l-.2-.47-.88.42.15.36zm-67.83.59c-.42-.62-.78-.65-1.06.09zm43.05-93.09c.29.64.66.68 1.44.21zm39.08 83.65h-.41a7.18 7.18 0 000 .8 2 2 0 00.39 0zm-2.25 4.51l.36.4a8.21 8.21 0 00.59-.59s-.22-.3-.24-.28a6.22 6.22 0 00-.71.47zm-68.58 9.81l.06.48 1-.24v-.35zM236.37 104l.23.38.82-.64-.17-.26zm-9.57-60.23l-.21.35c.22.1.44.21.67.29l.16-.22zM212.89 107l.26-.31-1-.62-.16.24z"/><path d="M262.79 236.15a4.52 4.52 0 01-1 .77c-4.18 1.69-7.83 4.31-11.73 6.49a24.05 24.05 0 01-7.87 2.88 5.58 5.58 0 01-1.08.12 15.27 15.27 0 00-5 1c-2.76.88-5.46 2-8.22 2.87a21.22 21.22 0 01-4.27.83 10.67 10.67 0 00-3.92 1.41c-2.34 1.23-4.72 2.4-7.1 3.58a4.66 4.66 0 01-1.2.13 6 6 0 01.86-1.12 22.08 22.08 0 012.14-1.29c1.41-.78 2.85-1.5 4.25-2.3a13.52 13.52 0 015.5-2 29.38 29.38 0 007-2 43.1 43.1 0 0110.84-2.72c3.23-.28 6.15-1.8 9-3.45 3.05-1.78 6.13-3.52 9.21-5.26a5.68 5.68 0 011.58-.63c.31-.07.67.17 1 .27zM422.51 212.77c-.95.78-1.48.3-2 0-2.9-1.63-5.81-3.26-8.68-4.94a16.61 16.61 0 00-7-2.09 5.51 5.51 0 01-1.51-.33 21.19 21.19 0 00-6.66-1.54c-1.16-.06-1.67-.41-1.49-.92.27-.77 1-.69 1.59-.62a21.72 21.72 0 015.32 1 17.06 17.06 0 004.22 1.05 14.85 14.85 0 015.71 1.95c3.09 1.73 6.16 3.47 9.23 5.25a7.81 7.81 0 011.27 1.19zM334.8 249.46c2.67 1.3 5.68 1.79 7.81 4 .12.13.13.37.27.83-.54-.07-1 0-1.24-.17a24.18 24.18 0 00-6.13-2.66c-2.24-.81-4.46-1.71-6.75-2.36a14.06 14.06 0 00-3.68-.28c-.9 0-.9.08-1.55-1a4.1 4.1 0 012.92-.65c1.53.24 3 .74 4.53 1a5.9 5.9 0 002.44-.11 19.08 19.08 0 003-1.24 5.52 5.52 0 014.08-.42 5.34 5.34 0 011.08.65c-.28.88-.8 1-1.42.82-2.07-.59-3.66.55-5.36 1.59zM31.81 225.88c1.61 0 3.22-.11 4.82 0a21.07 21.07 0 013.61.87c1 .27 2 .61 3 .93.19.06.46.06.57.19s.47.58.39.75-.51.64-.73.6a20.35 20.35 0 01-2.56-.63A10.88 10.88 0 0139 228a10.82 10.82 0 00-4.74-.63c-2.71 0-5.42-.08-8.11.12a61.32 61.32 0 00-6.42 1.05c-.62.11-1.36.46-1.59-.36s.65-.91 1.2-1.06a38.8 38.8 0 0111.55-1.25h.94zM430.06 212.11c.75.07 1.51.12 2.26.22a15.06 15.06 0 016.25 1.75 3 3 0 002.38.44 3.29 3.29 0 012.66.54c2.86 1.88 5.74 3.76 8.6 5.65a1.93 1.93 0 01.6.48c.12.19.23.57.12.7a1 1 0 01-.75.35 1.8 1.8 0 01-.84-.37c-.66-.42-1.29-.88-1.94-1.31-2-1.35-4.09-2.68-6.1-4.05a4.52 4.52 0 00-2.57-.43 4 4 0 01-1.8-.22c-2.42-1.54-5.18-1.74-7.88-2.18-1.05-.18-1.05-.19-.99-1.57zM402.43 217.56c1.65-1.11 3.43-.91 5.15-.68a33.85 33.85 0 0110.32 3.35c2.06 1 4.1 2 6.12 3.1a7.74 7.74 0 011.25 1c-.92.86-1.55.42-2.26.07-3.13-1.51-6.25-3.07-9.44-4.45a21 21 0 00-9.73-1.61c-.6.09-1.16.17-1.41-.78zM358.62 223.4c2.45-.44 4.66.17 6.87.72a12.25 12.25 0 015.45 2.56c.45.42.88.87 1.35 1.28a12.52 12.52 0 004.19 2.34 7.84 7.84 0 011.91 1 3.65 3.65 0 01.68 1.06l-.21.31a4.36 4.36 0 01-1.09-.18c-.86-.35-1.68-.81-2.54-1.16a12.57 12.57 0 01-4.38-2.94 10.42 10.42 0 00-5.62-2.83c-1.67-.36-3.38-.53-5.08-.76-1.03-.1-1.29-.3-1.53-1.4zM39 231.37l2.7.14a12.83 12.83 0 003.86-.07 3.23 3.23 0 012.75.82 7.07 7.07 0 003.87 1.45c1.92.19 3.46 1.36 5.15 2.14a.84.84 0 01.27.76.82.82 0 01-.73.35 7.79 7.79 0 01-1.74-.66 11.57 11.57 0 00-3.84-1.21 6.81 6.81 0 01-2.83-1.09 4.9 4.9 0 00-4-.82 6.72 6.72 0 01-4.72-.41c-.42-.31-.89-.54-.74-1.4zM281.75 246.45a5.79 5.79 0 011.19.12 35 35 0 019 3.89c.69.45 1.33 1 2 1.48l4.58 3.23a6.59 6.59 0 01.93.57c.26.25.64.69.57.92-.18.58-.69.26-1 .12a7 7 0 01-1.39-.72 35.42 35.42 0 01-3.84-2.66 28.25 28.25 0 00-9.2-4.82 18.42 18.42 0 01-2.17-.85c-.34-.17-.57-.58-.85-.88zM189.14 97.69a4.07 4.07 0 011.07-.32c2 0 4 .13 6.06.15 3.22 0 6.46-.14 9.67.08 2 .14 4-.09 6 0 .67 0 1.36 0 1.9.8-.34.17-.62.42-.91.43-1.07.05-2.14 0-3.22 0-2 0-4-.08-6-.1h-4.33a17.18 17.18 0 01-2.78-.22c-2-.37-4 .27-6-.09l-1.42-.23zM406.42 227.86a9.35 9.35 0 011.3.38c1.54.73 3 1.59 4.61 2.22a10.48 10.48 0 015.44 4.88 11.91 11.91 0 002.86 3.45c.38.33.9.57.68 1.24-.47.42-.86.11-1.25-.15a8.83 8.83 0 01-3-3.27 10.23 10.23 0 00-6.39-5.31 15.24 15.24 0 01-2.91-1.46 2.2 2.2 0 01-1.34-1.98zM376.58 222.76c-.08-.84.58-1.06 1.08-1.38a40.17 40.17 0 018.11-3.92 11.57 11.57 0 012.81-.83 14.94 14.94 0 013.53.22c.3.05.5.66.74 1-.3.17-.64.52-.88.46-4.25-1-7.59 1.37-11.16 2.89a19.16 19.16 0 00-2.56 1.46c-.56.34-1.09.6-1.67.1zM381.1 204.38c-.05.36 0 .83-.18 1.07-1.66 2.05-3 4.42-5.28 5.87a43.93 43.93 0 01-4.48 2.15c-1 .49-2 1.06-3 1.59-.05 0-.08.07-.12.09-.42.23-.91.56-1.21 0a1.15 1.15 0 01.33-1 16.94 16.94 0 012.59-1.69 18.39 18.39 0 012.61-1 11.43 11.43 0 005.41-4c.68-.86 1.36-1.71 2.07-2.53a4.72 4.72 0 01.83-.62zM295.08 246.44c.79-.58 1.27-.17 1.72.16 2.75 2 5.92 3.22 8.94 4.7a16.2 16.2 0 003.46.84 5.18 5.18 0 011.34.36 1 1 0 01.44.85c-.08.24-.53.37-.81.54a.3.3 0 01-.16 0c-2.37-.54-4.78-.92-6.91-2.25-1.14-.71-2.45-1.13-3.62-1.8s-2.54-1.6-3.77-2.45c-.27-.2-.39-.59-.63-.95zM455.28 205.27a2.53 2.53 0 01-2.1-2.27 10.31 10.31 0 00-1.94-4.2 32.33 32.33 0 00-5.16-6.21 3.75 3.75 0 01-.62-1.11 1 1 0 011.53.21 30.8 30.8 0 012.68 2.8 46.42 46.42 0 013.17 4.44 28.68 28.68 0 011.62 3.51 15.25 15.25 0 01.6 1.59 7.6 7.6 0 01.22 1.24zM250 256c2.28-1.66 3.18-4.24 4.78-6.33a3.79 3.79 0 00.89-2.26 2.3 2.3 0 01.49-1.42 24 24 0 012.78-2.23c.22-.15.64 0 1 0a3 3 0 01-1.43 1.92 3.07 3.07 0 00-1.44 2.42 2.88 2.88 0 01-.53 1.43c-.86 1.36-1.74 2.71-2.7 4a22.65 22.65 0 01-2.28 2.52c-.32.32-.8.7-1.56-.05zM119 251.35c-.4.82-.87.65-1.41.5a41.05 41.05 0 01-9.69-4.13 13.91 13.91 0 01-1.32-.83.79.79 0 01-.13-1.28 6.4 6.4 0 011 .31c1.39.7 2.76 1.43 4.15 2.15a16.14 16.14 0 004.2 1.6 4.74 4.74 0 013.2 1.68zM11.14 191a3.58 3.58 0 012.81.32 9.9 9.9 0 005 .56 4.68 4.68 0 011.95.26c.22.06.42.55.43.85s-.42.46-.66.47c-1.28.06-2.56.09-3.84.07a7.25 7.25 0 01-1.67-.25c-1-.26-2-.58-3-.89s-.89-.29-1.02-1.39zM323.29 245.6c-.69.8-1.16.59-1.64.34-1.85-.95-3.68-1.92-5.55-2.82a10.51 10.51 0 00-1.79-.5c-1.12-.28-1.42-.53-1.91-1.7a6.81 6.81 0 014 .89c2.31 1.19 4.9 1.89 6.89 3.79zM83.7 244.46a4.84 4.84 0 011.1-.09 25.08 25.08 0 018.57 3.18c.13.07.33.15.37.26a1.51 1.51 0 01.12.85c0 .13-.46.26-.66.21a12 12 0 01-1.59-.64c-1.22-.55-2.42-1.21-3.68-1.67-1-.36-2.12-.48-3.18-.74a1.17 1.17 0 01-1.05-1.36zM263.39 254.07a5.61 5.61 0 01.54-.91 33.75 33.75 0 005.36-7.19c.2-.39.66-.64 1-1a1.3 1.3 0 01.1 1.74 36.64 36.64 0 01-5.18 7 1.31 1.31 0 01-1.82.36zM438.94 197.7c2.62 1.38 5.37 1.89 7 4.34a1.93 1.93 0 01.37.67.92.92 0 01-.17.66c-.08.1-.4.09-.55 0a2.15 2.15 0 01-.72-.58 6.77 6.77 0 00-3.81-2.48 2.64 2.64 0 01-2.12-2.61zM437.89 187c.8.49.87.92.34 1.47s-1.21 1.27-1.78 1.94a10 10 0 01-3.81 2.36c-.23.11-.63-.13-.95-.2.08-.29.06-.66.24-.83a3.35 3.35 0 011.17-.75 7.87 7.87 0 003.37-2.67 13.62 13.62 0 011.42-1.32zM395.57 236.47a1.32 1.32 0 01-1.79-.07 8.62 8.62 0 00-4.16-2c-.72-.11-1.71-.28-1.9-1.51 1.18-.59 2.32.08 3.34.34a8.08 8.08 0 014.51 3.24zM54.2 241.32a12.93 12.93 0 01-1.9-.49 14.62 14.62 0 00-4.69-1.5c-.5 0-1-.15-.89-.79a.88.88 0 011.17-.71 23.17 23.17 0 012.69.71c1 .33 1.93.74 2.88 1.13.67.33.66.33.74 1.65zM11.4 196.61c.35.24.72.45 1.06.71l3 2.37c.65.51 1.33 1 1.93 1.53a.81.81 0 010 .81.81.81 0 01-.79.12c-1.71-1.33-3.83-2.11-5.18-3.89A4.6 4.6 0 0111 197zM28.66 198.4a15.54 15.54 0 01-1.64-.87c-1-.67-1.95-1.38-2.88-2.11-.62-.5-1.51-.83-1.39-1.88a.85.85 0 011.26 0c1.46 1.08 2.92 2.16 4.4 3.21.5.33.66.74.25 1.65zM430.87 172.05a4.07 4.07 0 01-1.21-.75 6.67 6.67 0 00-3-2.19c-.59-.23-1.5-.54-1.1-1.39s1.19-.3 1.7 0c1.2.81 2.36 1.69 3.49 2.59.53.43.62.99.12 1.74zM183.23 135.3c-.9-1.29-.82-6.64-.18-7.91a2 2 0 01.71 1.76c0 1.6 0 3.2-.1 4.8a5.3 5.3 0 01-.43 1.35zM103.2 255.28a7 7 0 01-1.41-.17c-1.21-.44-2.4-.92-3.58-1.43-.91-.39-1.38-1-1.08-1.45.56-.76 1.1 0 1.62.14 1.1.41 2.18.9 3.29 1.29.67.23 1.29.43 1.16 1.62zM170.15 251.46c-1.78.18-2.5-1.11-3.3-2.18-.58-.78-.47-1.13.39-2.42.61.12 1.3.3 1 1.11-.39 1 .27 1.32.78 1.78s1.19.65 1.13 1.71zM220.4 98.68a10.56 10.56 0 01-4.63.38 5 5 0 01-1.47-.57 6.66 6.66 0 016.1.19zM4.09 186.42c-1.73-1.32-2.74-3.28-4.09-5 1.74.67 2.85 2.08 4 3.41a4.3 4.3 0 01.56 1.27zM457.64 199c-1.41-2-3.49-3.35-4-6 1.47.77 3.68 4.07 4 6zM220.91 98.43c1.89-.2 3.76-.55 5.73 0a1.83 1.83 0 01-1.91.72c-1.3-.01-2.66.26-3.82-.72zM458.82 208c-.95-.13-1.6-.33-1.92-1.1 1.02-.5 1.24-.39 1.92 1.1zM203 206.6c0 1-.21 1.47-1.16 1.61a6.94 6.94 0 01-2.32 0c-1.37-.27-2.7-.73-4.06-1.06-2-.48-3.94-.85-5.88-1.4a51.84 51.84 0 01-5.13-1.78c-1.69-.67-3.35-1.42-5-2.2-1.82-.87-3.62-1.8-5.41-2.74s-3.81-2.12-5.79-3a16.09 16.09 0 00-3.14-.82h-.46c-.63-.09-1.43-.19-1.4-.94.05-.94 1-.61 1.5-.59a12.93 12.93 0 015.73 1.8c1.83 1 3.61 2.08 5.44 3 1.33.7 2.72 1.28 4.08 1.9s2.58 1.11 3.83 1.75a26.31 26.31 0 006.46 2.18c2.78.62 5.52 1.41 8.28 2.08a7.26 7.26 0 003.84.18c.18-.11.4 0 .59.03zM289.87 173a4.52 4.52 0 01-1.4-.26c-4.6-2.48-9.66-3.79-14.49-5.66a17.62 17.62 0 00-4.41-.89 7 7 0 01-5.05-2.74 13.34 13.34 0 00-6.85-4.65 14.68 14.68 0 00-2.73-.45c-.57-.06-1.15 0-1.72 0s-1-.31-.84-.87a1.17 1.17 0 01.88-.63 11.62 11.62 0 015.49.79 14.58 14.58 0 016.38 4.57 6 6 0 004.49 2.53 26.86 26.86 0 017.64 2 102.07 102.07 0 0110.28 4.06c.55.29 1.15.5 1.67.83a6.37 6.37 0 01.91.89zM204.23 181.66c-.18-.14-.45-.26-.46-.39 0-.28 0-.71.18-.83a14.5 14.5 0 011.77-1c1.39-.71 2.79-1.39 4.17-2.12a16.44 16.44 0 007.26-7.28c.48-1 1.15-1.85 1.72-2.79a15.37 15.37 0 016-5.3 39.07 39.07 0 003.76-2.22 32.8 32.8 0 003.14-2.76c.36-.33.68-.76 1.17-.33s.16.83-.13 1.22a14.57 14.57 0 01-4.52 3.78c-1.39.82-2.8 1.6-4.19 2.42a12.34 12.34 0 00-4.5 4.46 17.63 17.63 0 00-1 1.59c-2.41 5.44-7.1 8.25-12.21 10.59-.69.3-1.39.64-2.16.96zM295.23 177.17c.77-.36 1.11.06 1.37.53 1.56 2.75 3.22 5.47 4.64 8.3 1.57 3.16 2.83 6.48 4.4 9.63a23.56 23.56 0 008 9 9.79 9.79 0 011.61 1.23c.22.22.17.71.24 1.07-.33 0-.75.09-1-.07a34.1 34.1 0 01-6.36-5.26c-3-3.35-4.86-7.34-6.55-11.45a81 81 0 00-6-11.65 7.29 7.29 0 01-.46-.81 1.33 1.33 0 01.11-.52zM312.43 179a1.7 1.7 0 01.73-.05 5.64 5.64 0 011.25.63 27.86 27.86 0 018.13 7.65 17 17 0 006.8 5.79c1.71.87 3.32 1.92 5 2.88l4.6 2.62a4.55 4.55 0 011.1.56 1.34 1.34 0 01.36 1c-.13.54-.63.45-1 .25a40.24 40.24 0 01-4.09-2.22 74.89 74.89 0 00-8.2-4.82 12.35 12.35 0 01-4.83-4.34 31.83 31.83 0 00-8.8-8.51c-.78-.44-.78-.44-1.05-1.44zM70.38 191.19c-.13.83-.85 1.24-1.39 1.76a2.84 2.84 0 01-.66.42c-3.93 2.14-6.24 5.68-8.29 9.48a50.1 50.1 0 01-6.17 9.35c-1.5 1.72-3.23 3.24-4.86 4.84-.36.35-.82.6-1.22.14s0-.85.32-1.2c1.29-1.21 2.65-2.36 3.81-3.69A49.7 49.7 0 0056 207c1.49-2.25 2.8-4.62 4.15-7a18.46 18.46 0 016.78-7.35 17 17 0 002.07-1.57c.51-.38.93-.52 1.38.11zM343.27 173a2.62 2.62 0 012.33 1c1 1 1.91 2.19 2.93 3.22 1.31 1.33 2.64 2.65 4.07 3.84a16.42 16.42 0 013.42 3.14 8.61 8.61 0 001.74 1.54 38.11 38.11 0 007.07 4.8c1.43.71 1.43.83 1.82 2.2a7.16 7.16 0 01-1.33-.33 43.43 43.43 0 01-8.75-5.89c-.49-.39-.93-.83-1.39-1.26a34.08 34.08 0 00-3.06-2.84 21.76 21.76 0 01-5-4.84c-.79-1.08-1.84-2-2.74-3-.38-.38-.63-.86-1.11-1.58zM152.28 206.47c.86.35 1.63.65 2.39 1a34.26 34.26 0 018.78 5 59 59 0 014.45 4.36 24.35 24.35 0 006.53 5.25c.18.09.43.17.51.33s.27.63.16.83a.94.94 0 01-.77.3 2.52 2.52 0 01-.84-.38 26.67 26.67 0 01-7.64-6.58 24.8 24.8 0 00-7.52-5.75c-1.75-.91-3.54-1.75-5.29-2.66a1.2 1.2 0 01-.76-1.7zM246.69 167.27a3.37 3.37 0 01-.4 1 9.26 9.26 0 01-1.84 1.65 16.2 16.2 0 00-6.63 7.85 22.09 22.09 0 01-7.62 9.1 1.7 1.7 0 01-.69.33.65.65 0 01-.51-.2.63.63 0 01-.06-.56 5.63 5.63 0 01.84-.92c.94-.82 1.89-1.63 2.84-2.43 2-1.69 3.11-4 4.19-6.33a18 18 0 016.7-7.83c.65-.42 1.19-1 1.81-1.48a7 7 0 011-.55zM217.56 212.91c.92.38 1.8.68 2.64 1.09 1.63.8 3.23 1.68 4.86 2.48a9.89 9.89 0 013.67 2.82 20.74 20.74 0 006.42 5.13 3.72 3.72 0 01.94.78c.11.13 0 .5-.05.69s-.36.17-.55.18a1 1 0 01-.43-.16c-2.37-1.31-4.73-2.63-6.45-4.82a13.94 13.94 0 00-5.65-4c-1.75-.77-3.45-1.68-5.17-2.54a2.36 2.36 0 01-.72-.57.61.61 0 01-.1-.56c.11-.24.36-.34.59-.52zM328 174.88a1.46 1.46 0 011.65-.86 24 24 0 018.55 2.17c2.1.89 4.09 2 6.13 3.06l3.34 1.65c.28.14.63.19.83.4s.38.65.28.8a1.12 1.12 0 01-.86.45 4.87 4.87 0 01-1.44-.55c-1-.52-2.06-1-3-1.63a33 33 0 00-12.48-4.72c-.56-.09-1.15 0-1.7-.16a7.15 7.15 0 01-1.3-.61zM197.68 183.9c-.07.82-.66 1.06-1.17 1.43-3.08 2.2-6.18 4.38-9.18 6.69-1.72 1.33-3.25 2.89-4.88 4.33-.87.77-1.52.94-1.73.48-.34-.77.35-1.12.8-1.49 3.16-2.69 6.3-5.39 9.53-8 1.58-1.27 3.33-2.31 5-3.45a1.16 1.16 0 011.63.01zM169.86 155.32a8.22 8.22 0 01-1.06 1 11.09 11.09 0 01-5.61 1.6 6.47 6.47 0 00-4.34 1.82 37.69 37.69 0 01-3.84 2.92 1.13 1.13 0 01-1.07 0c-.41-.37-.05-.77.29-1 1.88-1.48 3.71-3 5.68-4.36a6.16 6.16 0 012.93-.88 13.88 13.88 0 005.23-1.29 2.46 2.46 0 011-.27c.22-.05.41.2.79.46zM319.63 168.28a3.65 3.65 0 01-1.07-.14c-2.59-1.32-5.24-2.55-7.71-4a68.81 68.81 0 01-5.91-4.33c-.28-.21-.39-.63-.58-.95l.24-.32a6 6 0 011.49.48 23.71 23.71 0 012.64 1.92 37.57 37.57 0 008 4.8l2.1 1a1.21 1.21 0 01.8 1.54zM130.27 178.67a2.92 2.92 0 01.41-.85c1.91-2 3.75-4 5.81-5.82a31.93 31.93 0 014.31-2.76c.57-.35 1.11-.76 1.72-1.06a2.69 2.69 0 011 0c0 .37.05.86-.15 1.08a4.37 4.37 0 01-1.51 1.08 23.81 23.81 0 00-9.13 7.33 9.36 9.36 0 01-1.11 1.07 1 1 0 01-1.35-.07zM251.82 215.94a7.79 7.79 0 01.48-1.53c.48-.86 1.08-1.65 1.61-2.49.74-1.19 1.51-2.37 2.17-3.6a5.74 5.74 0 013-2.84c.91-.37 1.79-.85 2.71-1.18.27-.1.65.12 1 .19a4.62 4.62 0 01-.29 1c-.07.15-.33.23-.51.32-.48.22-.95.44-1.43.62a5.75 5.75 0 00-3.37 2.8c-1.16 2.2-2.55 4.29-3.89 6.39-.2.32-.67.46-1 .68zM92.44 208a1.23 1.23 0 01-1.85-.19 20.1 20.1 0 01-2.19-2.63 29.33 29.33 0 00-4.82-5.48c-.56-.55-1.12-1.08-1.63-1.67a5.46 5.46 0 01-.55-1 .72.72 0 011.18 0c2.16 2.08 4.53 4 6.24 6.48a42.77 42.77 0 002.89 3.49 10.91 10.91 0 01.73 1zM197 226.1c-1.68.27-3.06-.72-4.35-1.5-1.93-1.16-4.19-2-5.46-4.23.88-.54 1.33 0 1.81.32 2 1.16 4 2.35 6 3.51.4.23.86.35 1.28.56s.95.53.72 1.34zM240.46 223.57c-.69 0-1-.56-.58-1a4.48 4.48 0 011.33-1 13.05 13.05 0 004.63-3.58c.32-.42.85-1.19 1.5-.52s-.15 1.07-.52 1.52a18.24 18.24 0 01-5.64 4.3 6.73 6.73 0 01-.72.28zM158.68 230.63c0 .66-.44 1-1 .8a7.18 7.18 0 01-1.49-.81q-1.89-1.22-3.74-2.48a2.37 2.37 0 01-.72-.79.77.77 0 01.08-.67c.07-.1.37-.12.55-.09a1.77 1.77 0 01.54.29c1.73 1 3.45 2.06 5.16 3.12a3 3 0 01.62.63zM170.85 230.77c-1.28-.52-2.46-1-3.65-1.48-.45-.17-.73-.47-.56-.94a.81.81 0 011.13-.5c1 .41 2 .82 3 1.32.63.36.6.48.08 1.6zM36.16 175.71c.58-.47.92-.2 1.32.11 1.17.93 2.33 1.88 3.56 2.74 1.84 1.27 2.71 3.22 3.66 5.1a.81.81 0 01-.21.78.85.85 0 01-.8-.19 9 9 0 01-1-1.57 9.12 9.12 0 00-3.58-3.78 6.45 6.45 0 01-2.95-3.19zM37.17 170.69a3.48 3.48 0 012.51.07 20 20 0 016.43 4.33 1.7 1.7 0 01.47.61.82.82 0 01-.12.69.72.72 0 01-.68.08 6.42 6.42 0 01-1-.79A14.63 14.63 0 0038.4 172a1.3 1.3 0 01-1.23-1.31zM29.62 169c.38.95.13 1.44-.42 1.73-1 .53-1.33 1.53-1.87 2.4-.95 1.53-2 3-3.06 4.46a1 1 0 01-.93.26c-.5-.23-.31-.68-.06-1.05s.55-.75.8-1.14c.75-1.18 1.45-2.38 2.23-3.53a16.76 16.76 0 011.79-2.31 5.82 5.82 0 011.52-.82zM22.37 166.79a1 1 0 010 1.48 19.68 19.68 0 01-2.41 2.16 34.18 34.18 0 01-3.24 1.83c-.67.38-.67.37-1.51-.15a3.29 3.29 0 011.89-1.72 13.48 13.48 0 004.74-3.39c.08-.12.28-.12.53-.21zM33.19 163.3c0 .62-.38.92-.92.74a3.52 3.52 0 00-3.11.27A.78.78 0 0128 164c-.21-.52.19-.8.62-1.07a5.24 5.24 0 013.28-.68 1.32 1.32 0 011.29 1.05zM55.19 179.78c0 .56-.35.89-.79.66-1.18-.6-2.32-1.29-3.45-2a.74.74 0 01-.11-.69c.08-.17.47-.38.59-.32 1.21.62 2.41 1.29 3.6 2 .1.02.11.23.16.35zM96.83 172.74a14.17 14.17 0 01-1.47-.35c-.91-.34-1.81-.74-2.72-1.09a9.63 9.63 0 01-5-3.51c-.51-.78-1.23-1.41-1.8-2.15-.15-.2-.09-.55-.12-.84.32 0 .76-.09.94.08a21.07 21.07 0 012.34 2.47 6.74 6.74 0 004.16 2.51 7.81 7.81 0 013.23 1.77c.21.15.23.52.44 1.11zM87.67 176.43a1.37 1.37 0 01-1.83-.23c-2.17-1.58-3.52-3.93-5.41-5.76a2.86 2.86 0 01-.4-.89.78.78 0 011.29 0 8.27 8.27 0 011.85 1.89c.87 1.64 2.4 2.56 3.63 3.8a10.06 10.06 0 01.87 1.19zM67.28 160.64a.82.82 0 01.31-1.35 6.91 6.91 0 002.22-2.29 18.73 18.73 0 012.49-2.55c.16-.16.55-.08.83-.11 0 .33.15.72 0 1a5.3 5.3 0 01-.94 1 7.84 7.84 0 00-1.93 2.58c-.45 1.08-.84 1.25-2.98 1.72zM68.86 167.44a.91.91 0 01-.47 1.3 12.11 12.11 0 00-3.79 3.65c-.31.44-.64 1.14-1.32.59s-.27-1 .16-1.48q1.78-1.84 3.6-3.67a1.46 1.46 0 011.82-.39zM76.62 176.32c-.45.94-1.36.79-2 .6a25.12 25.12 0 01-3.74-1.49 1.12 1.12 0 01-.5-1c.13-.59.65-.53 1.13-.31a9.9 9.9 0 004 1.18c.49.04 1.08.25 1.11 1.02zM89.89 159.2c-.55.24-.94.58-1.2.5-1.31-.39-2.59-.88-3.86-1.37a1.58 1.58 0 01-.71-.56c-.28-.41.19-1.15.59-.94 1.33.7 3 .26 4.21 1.31a13.13 13.13 0 01.97 1.06zM97.12 163.23a7.5 7.5 0 011.47.55 19 19 0 012.34 1.75 2.15 2.15 0 01.51 1.18c0 .11-.64.51-.73.45-1.21-.94-2.38-1.93-3.52-2.95-.13-.11-.05-.46-.07-.98zM79.19 161.17a1.8 1.8 0 01-.18.72c-.16.27-.6.64-.75.57-.32-.13-.8-.58-.76-.8a2.74 2.74 0 00-.6-2.57.9.9 0 01.16-.9 1 1 0 011 .07 3.57 3.57 0 011.13 2.91zM71.8 165.6c.68-.12 1.15-.36 1.35-.21a10.94 10.94 0 011.85 1.72.72.72 0 01-1.12.87c-.65-.65-1.23-1.4-2.08-2.38zM66 165.39c-1.11.42-1.76-.53-2.58-.94-.12-.06-.17-.5-.08-.69s.42-.44.56-.4a9.68 9.68 0 011.66.69.93.93 0 01.44 1.34zM377.23 178.47a10.72 10.72 0 011.5.55c.91.5 1.8 1 2.66 1.62a3.1 3.1 0 003.1.22c2.49-1 5-2.09 7.51-2.94a5.25 5.25 0 014.24.26 20.87 20.87 0 001.92 1 6.6 6.6 0 002.37.64 8.51 8.51 0 013.72 1c.85.4 1.71.75 2.57 1.13a2.65 2.65 0 01.82.42c.19.18.37.58.29.76a.88.88 0 01-.74.39 7.17 7.17 0 01-1.62-.48 11.91 11.91 0 01-1.68-.83 5.62 5.62 0 00-3.42-.84c-1.27.13-2.28-.56-3.36-1.06a17.6 17.6 0 00-2.73-1 4.06 4.06 0 00-2.72.4c-1.09.47-2.26.73-3.37 1.15a26.33 26.33 0 00-3.12 1.37 3.6 3.6 0 01-4-.06c-1.15-.72-2.34-1.37-3.46-2.12a4.8 4.8 0 01-.87-1.1zM361.4 176.8c-.19-.14-.51-.25-.55-.43a1 1 0 01.2-.8 8.57 8.57 0 011.34-.79l5.07-2.74a3 3 0 01.87-.32.6.6 0 01.53.2.86.86 0 010 .7 1.67 1.67 0 01-.66.63 525.65 525.65 0 01-6.18 3.31 4.3 4.3 0 01-.62.24z"/><path d="M379.46 175.18c.11 0 .35.13.57.25 1 .52 2 1.06 3 1.6.18.1.41.19.49.35s.29.6.2.82a.84.84 0 01-.71.41 7.53 7.53 0 01-4.05-2.37c-.39-.44-.13-1.01.5-1.06zM358.92 161.86a5.23 5.23 0 01.95.75 15.82 15.82 0 004.13 3.49 1 1 0 01.13.09c.37.33 1 .64.53 1.21a1.3 1.3 0 01-1.23 0 15 15 0 01-4.63-4.11c-.14-.22-.34-.46-.33-.68s.27-.45.45-.75zM362.94 159.48l3.08 2.16a14 14 0 011.76 1.26 7.54 7.54 0 011 1.53c-.66 0-1.08.13-1.31 0q-2.18-1.46-4.25-3.06a2.43 2.43 0 01-.65-1.15c-.07-.22.2-.44.37-.74zM343.79 157c-.21-.18-.51-.33-.64-.58a.71.71 0 01.14-.67c1-.78 1.94-1.54 3-2.23a1 1 0 01.92.18 1 1 0 01-.05 1c-.9.77-1.88 1.45-2.84 2.16a2.74 2.74 0 01-.53.14zM350 166.19c.12-.28.27-.59.42-.91.34-.74.64-1.5 1-2.21.18-.31.53-.7.83-.72.63 0 .8.57.63 1a18.24 18.24 0 01-1.57 3.16c-.31.49-.94.27-1.31-.32zM360.2 154.6c1.42 0 2.88 1 3 2.09a1.14 1.14 0 01-.42.88.83.83 0 01-.83-.09 27.94 27.94 0 01-1.73-2.32c-.09-.1-.02-.3-.02-.56zM352.61 156.53c.85-.36 1.31.05 1.41.62a5.42 5.42 0 01-.16 1.91c0 .1-.49.24-.67.16a1 1 0 01-.55-.62 20.59 20.59 0 01-.03-2.07zM117.48 153.36c1 .2 1.91.36 2.84.63a2 2 0 01.94.74.66.66 0 01-.62 1.05 1.12 1.12 0 01-.58-.16 4.8 4.8 0 00-3-.54 5.84 5.84 0 01-1.39 0c-.29-.06-.76-.45-.73-.57a1.3 1.3 0 01.66-.85 9.28 9.28 0 011.84-.13zM118.72 149.16h.3c.94.61 1.89 1.19 2.78 1.87.18.14.19.68.08 1a.84.84 0 01-.76.31 5.42 5.42 0 01-2.9-2.16c-.29-.54-.02-1 .5-1.02zM113.31 160.06c-1.71-.72-2-1.37-1.32-2.7.25-.48.47-1 .72-1.52.77.09 1.26.4 1.15 1.16-.07.49-.43.92-.53 1.41a9.8 9.8 0 00-.02 1.65zM110.52 155.55a23.77 23.77 0 01-2.89.71 1.4 1.4 0 01-1.09-.62c-.27-.43.12-.73.57-.89s.76-.34 1.15-.47c1.15-.37 1.65-.1 2.26 1.27zM105.31 159.71c.61-.81 1.37-.43 2-.16a4.57 4.57 0 011.64 1.32c.28.36-.06.8-.57.83a.9.9 0 01-.71-.22c-.67-.79-2.17-.42-2.36-1.77zM125.8 153.05a2.3 2.3 0 01-2.52-.91c-.31-.4-.11-1 .29-1a2.91 2.91 0 011.41.52c.33.34.48.8.82 1.39zM159.69 142.91c-.89 1.06-.45 2.8-2.12 3.31-.53.16-1 .59-1.51.78a1 1 0 01-.92-.2 1 1 0 010-1 2.4 2.4 0 011-.72 2 2 0 001.41-1.83 1 1 0 011.42-1c.28.14.46.43.72.66zM165.41 141.23a1.4 1.4 0 01-1.7-.26 2.89 2.89 0 00-2.09-.84 1 1 0 01-.79-.38 3.47 3.47 0 01-.34-1.09 3.33 3.33 0 011.09-.23 8 8 0 011.62.5 3 3 0 012.19 2.33zM167.93 138.28a1.47 1.47 0 01.46.12 24.43 24.43 0 012 1.51.85.85 0 01.15.82 1 1 0 01-.76.35 5 5 0 01-2.46-2c-.16-.5.14-.72.61-.8z"/><path d="M165.39 141.26c.6.06 1.21.08 1.81.2s1.12.28 1.07.91-.67.82-1.28.82c-1.28 0-1.76-.6-1.58-2zM162.55 143.32a3.24 3.24 0 01.55.94c.13.64-.46 1.47-.93 1.32a1.48 1.48 0 01-.84-.89c-.17-.56.47-1.34 1.22-1.37zM106.57 150.42a4.28 4.28 0 01-.73.59.68.68 0 01-.58-.09c-1-.67-2.08-1.35-3.07-2.08-.19-.14-.35-.67-.25-.78s.69-.48.87-.38c1.21.67 2.38 1.42 3.55 2.17.1.06.11.28.21.57zM96.23 148.22a6.26 6.26 0 013-1.57c.51-.06 1.12-.06 1.22.62s-.38.87-.93 1a12.43 12.43 0 00-1.71.62c-.81.37-.81.37-1.58-.67zM94.65 153.83c-.24.18-.63.61-.75.54a13 13 0 01-2.39-1.55c-.31-.27.13-1 .52-.8a22.07 22.07 0 012.41 1.26c.1.06.11.28.21.55zM264.46 106.76a4.94 4.94 0 01.64 1 8.34 8.34 0 01-.06 4.62.91.91 0 01-.65.52.81.81 0 01-.57-.55c0-1.66.08-3.32.16-5 .02-.14.19-.25.48-.59zM264 119.8a4.75 4.75 0 01-.48-1.33 30 30 0 01.05-3.55c0-.27.33-.53.5-.79.23.18.59.32.65.54a7 7 0 01-.27 4.94c-.02.06-.16.08-.45.19zM262.44 113.91v-1h.31l.14 1.08zM260.66 120.69V122h-.22v-1.32zM143.68 142.38c.21.11.5.18.63.36a5.59 5.59 0 003 2.08c.21.07.51.52.45.67a1.16 1.16 0 01-.7.64 1.78 1.78 0 01-1.18-.22 17.1 17.1 0 01-2.39-1.93.93.93 0 01.19-1.6zM135.43 148c-.08-.06-.37-.17-.44-.36a.81.81 0 01.14-.69c.81-.84 1.65-1.67 2.51-2.46a.8.8 0 01.7-.12.81.81 0 01.37.59c.06.94-2.13 3.04-3.28 3.04zM141.85 144.93a3.13 3.13 0 01-2 2.11c-.54 0-1-.46-.68-.89a10.31 10.31 0 011.48-1.76c.15-.14.6-.08.84 0s.29.42.36.54zM177.48 138.67c-.12.1-.3.36-.5.39a2.2 2.2 0 01-1-.1c-.48-.17-1.09-.43-.93-1.06s.85-.55 1.41-.4 1.1.26 1.02 1.17z"/></svg>